<svg width="310" height="310" viewBox="0 0 310 310" fill="none" xmlns="http://www.w3.org/2000/svg">
<path fill-rule="evenodd" clip-rule="evenodd" d="M155 309.633C240.401 309.633 309.633 240.401 309.633 155C309.633 69.5986 240.401 0.367188 155 0.367188C69.5986 0.367188 0.367188 69.5986 0.367188 155C0.367188 240.401 69.5986 309.633 155 309.633ZM158.801 10.7346C156.68 8.54589 153.169 8.54589 151.047 10.7346C149.079 12.7654 145.877 12.9332 143.708 11.1192C141.369 9.16425 137.877 9.53128 135.997 11.9297C134.252 14.1551 131.085 14.6567 128.738 13.0794C126.208 11.3796 122.773 12.1096 121.153 14.6915C119.65 17.0871 116.554 17.9169 114.054 16.5937C111.36 15.1676 108.021 16.2527 106.68 18.9897C105.436 21.5293 102.443 22.6783 99.8186 21.6236C96.9906 20.4869 93.7829 21.915 92.7353 24.7772C91.7634 27.433 88.9066 28.8886 86.1867 28.1139C83.2554 27.279 80.2146 29.0347 79.472 31.9907C78.7829 34.7335 76.094 36.4797 73.308 35.9936C70.3055 35.4697 67.4648 37.5336 67.0353 40.551C66.6367 43.3508 64.145 45.3686 61.3235 45.1763C58.2827 44.9692 55.6733 47.3186 55.5615 50.3645C55.4577 53.1906 53.1906 55.4577 50.3645 55.5615C47.3186 55.6733 44.9692 58.2827 45.1763 61.3235C45.3686 64.145 43.3508 66.6367 40.551 67.0353C37.5336 67.4648 35.4697 70.3055 35.9936 73.308C36.4797 76.094 34.7335 78.7829 31.9907 79.472C29.0347 80.2146 27.279 83.2554 28.1139 86.1867C28.8886 88.9066 27.433 91.7634 24.7772 92.7353C21.915 93.7829 20.4869 96.9906 21.6236 99.8186C22.6783 102.443 21.5293 105.436 18.9897 106.68C16.2527 108.021 15.1676 111.36 16.5937 114.054C17.9169 116.554 17.0871 119.65 14.6915 121.153C12.1096 122.773 11.3796 126.208 13.0794 128.738C14.6567 131.085 14.1551 134.252 11.9297 135.997C9.53128 137.877 9.16425 141.369 11.1192 143.708C12.9332 145.877 12.7654 149.079 10.7346 151.047C8.54589 153.169 8.54589 156.68 10.7346 158.801C12.7654 160.769 12.9332 163.971 11.1192 166.141C9.16425 168.479 9.53128 171.971 11.9297 173.852C14.1551 175.597 14.6567 178.763 13.0794 181.111C11.3796 183.641 12.1096 187.075 14.6915 188.695C17.0871 190.198 17.9169 193.295 16.5937 195.794C15.1676 198.488 16.2527 201.827 18.9897 203.168C21.5293 204.412 22.6783 207.406 21.6236 210.03C20.4869 212.858 21.915 216.065 24.7772 217.113C27.433 218.085 28.8886 220.942 28.1139 223.662C27.279 226.593 29.0347 229.634 31.9907 230.376C34.7335 231.065 36.4797 233.754 35.9936 236.54C35.4697 239.543 37.5336 242.383 40.551 242.813C43.3508 243.212 45.3686 245.703 45.1763 248.525C44.9692 251.566 47.3186 254.175 50.3645 254.287C53.1906 254.391 55.4577 256.658 55.5615 259.484C55.6733 262.53 58.2827 264.879 61.3235 264.672C64.145 264.48 66.6367 266.497 67.0353 269.297C67.4648 272.315 70.3055 274.379 73.308 273.855C76.094 273.369 78.7829 275.115 79.472 277.858C80.2146 280.814 83.2554 282.569 86.1867 281.734C88.9066 280.96 91.7634 282.415 92.7353 285.071C93.7829 287.933 96.9906 289.361 99.8186 288.225C102.443 287.17 105.436 288.319 106.68 290.859C108.021 293.596 111.36 294.681 114.054 293.255C116.554 291.931 119.65 292.761 121.153 295.157C122.773 297.739 126.208 298.469 128.738 296.769C131.085 295.192 134.252 295.693 135.997 297.919C137.877 300.317 141.369 300.684 143.708 298.729C145.877 296.915 149.079 297.083 151.047 299.114C153.169 301.302 156.68 301.302 158.801 299.114C160.769 297.083 163.971 296.915 166.141 298.729C168.479 300.684 171.971 300.317 173.852 297.919C175.597 295.693 178.763 295.192 181.111 296.769C183.641 298.469 187.075 297.739 188.695 295.157C190.198 292.761 193.295 291.931 195.794 293.255C198.488 294.681 201.827 293.596 203.168 290.859C204.412 288.319 207.406 287.17 210.03 288.225C212.858 289.361 216.065 287.933 217.113 285.071C218.085 282.415 220.942 280.96 223.662 281.734C226.593 282.569 229.634 280.814 230.376 277.858C231.065 275.115 233.754 273.369 236.54 273.855C239.543 274.379 242.383 272.315 242.813 269.297C243.212 266.497 245.703 264.48 248.525 264.672C251.566 264.879 254.175 262.53 254.287 259.484C254.391 256.658 256.658 254.391 259.484 254.287C262.53 254.175 264.879 251.566 264.672 248.525C264.48 245.703 266.497 243.212 269.297 242.813C272.315 242.383 274.379 239.543 273.855 236.54C273.369 233.754 275.115 231.065 277.858 230.376C280.814 229.634 282.569 226.593 281.734 223.662C280.96 220.942 282.415 218.085 285.071 217.113C287.933 216.065 289.361 212.858 288.225 210.03C287.17 207.406 288.319 204.412 290.859 203.168C293.596 201.827 294.681 198.488 293.255 195.794C291.931 193.295 292.761 190.198 295.157 188.695C297.739 187.075 298.469 183.641 296.769 181.111C295.192 178.763 295.693 175.597 297.919 173.852C300.317 171.971 300.684 168.479 298.729 166.141C296.915 163.971 297.083 160.769 299.114 158.801C301.302 156.68 301.302 153.169 299.114 151.047C297.083 149.079 296.915 145.877 298.729 143.708C300.684 141.369 300.317 137.877 297.919 135.997C295.693 134.252 295.192 131.085 296.769 128.738C298.469 126.208 297.739 122.773 295.157 121.153C292.761 119.65 291.931 116.554 293.255 114.054C294.681 111.36 293.596 108.021 290.859 106.68C288.319 105.436 287.17 102.443 288.225 99.8186C289.361 96.9906 287.933 93.7829 285.071 92.7353C282.415 91.7634 280.96 88.9066 281.734 86.1867C282.569 83.2554 280.814 80.2146 277.858 79.472C275.115 78.7829 273.369 76.094 273.855 73.308C274.379 70.3055 272.315 67.4648 269.297 67.0353C266.497 66.6367 264.48 64.145 264.672 61.3235C264.879 58.2827 262.53 55.6733 259.484 55.5615C256.658 55.4577 254.391 53.1906 254.287 50.3645C254.175 47.3186 251.566 44.9692 248.525 45.1763C245.703 45.3686 243.212 43.3508 242.813 40.551C242.383 37.5336 239.543 35.4697 236.54 35.9936C233.754 36.4797 231.065 34.7335 230.376 31.9907C229.634 29.0347 226.593 27.279 223.662 28.1139C220.942 28.8886 218.085 27.433 217.113 24.7772C216.065 21.915 212.858 20.4869 210.03 21.6236C207.406 22.6783 204.412 21.5293 203.168 18.9897C201.827 16.2527 198.488 15.1676 195.794 16.5937C193.295 17.9169 190.198 17.0871 188.695 14.6915C187.075 12.1096 183.641 11.3796 181.111 13.0794C178.763 14.6567 175.597 14.1551 173.852 11.9297C171.971 9.53128 168.479 9.16425 166.141 11.1192C163.971 12.9332 160.769 12.7654 158.801 10.7346Z" fill="black"/>
</svg>
