<svg width="44" height="44" viewBox="0 0 44 44" fill="none" xmlns="http://www.w3.org/2000/svg">
<rect x="11" y="16" width="1" height="14" fill="black"/>
<path d="M11.7913 28.9644C12.4472 30.1814 11.5054 32.0794 9.68765 33.2036C7.86991 34.3279 5.8646 34.2527 5.20868 33.0356C4.55275 31.8186 5.4946 29.9206 7.31235 28.7964C9.13009 27.6721 11.1354 27.7473 11.7913 28.9644Z" fill="black"/>
<rect x="35" y="16" width="1" height="14" fill="black"/>
<path d="M35.7913 28.9644C36.4472 30.1814 35.5054 32.0794 33.6877 33.2036C31.8699 34.3279 29.8646 34.2527 29.2087 33.0356C28.5528 31.8186 29.4946 29.9206 31.3123 28.7964C33.1301 27.6721 35.1354 27.7473 35.7913 28.9644Z" fill="black"/>
<rect x="11" y="15" width="25" height="2" fill="black"/>
<path d="M23.7 9.74L23.785 9.735C23.9717 9.735 24.1467 9.78167 24.31 9.875C24.4767 9.965 24.61 10.0967 24.71 10.27C24.81 10.4433 24.86 10.6467 24.86 10.88C24.86 11.1233 24.8033 11.34 24.69 11.53C24.58 11.7167 24.425 11.8617 24.225 11.965C24.025 12.0683 23.795 12.12 23.535 12.12C23.225 12.12 22.9567 12.0483 22.73 11.905C22.5067 11.7583 22.3383 11.5633 22.225 11.32L22.765 10.95C22.8517 11.13 22.9567 11.2667 23.08 11.36C23.2067 11.45 23.36 11.495 23.54 11.495C23.7267 11.495 23.8783 11.4383 23.995 11.325C24.1117 11.2117 24.17 11.0633 24.17 10.88C24.17 10.69 24.1117 10.54 23.995 10.43C23.8817 10.3167 23.7267 10.2567 23.53 10.25C23.4 10.25 23.2683 10.29 23.135 10.37L22.76 9.88L23.76 8.865H22.36V8.225H24.665V8.79L23.69 9.715L23.7 9.74Z" fill="black"/>
<rect x="11" y="10" width="9" height="1" fill="black"/>
<rect x="27" y="10" width="9" height="1" fill="black"/>
<rect x="11" y="10" width="1" height="3" fill="black"/>
<rect x="35" y="10" width="1" height="3" fill="black"/>
<path d="M25.3903 21.4867C25.2315 21.4867 25.1653 21.5574 25.0564 21.673C24.6915 22.0604 23.7677 22.9348 22.6808 23.1553C22.7165 23.0315 22.7409 22.9035 22.7409 22.768C22.7409 21.9979 22.1272 21.3735 21.371 21.3735C20.6137 21.3735 20 21.9979 20 22.768C20 23.4531 20.4862 24.0196 21.1259 24.1369C21.4636 24.2418 22.1596 24.3376 23.2352 23.9106C23.6492 23.7463 23.9954 23.5307 24.2836 23.3036L21.2786 29.1212C21.1654 29.3403 21.3165 29.6031 21.5627 29.6156C21.6938 29.6222 21.8163 29.5537 21.8782 29.438C22.425 28.4167 25.0354 23.5328 25.7933 21.9654C25.92 21.7032 25.6815 21.4867 25.3903 21.4867Z" fill="black"/>
</svg>
