<svg width="402" height="874" viewBox="0 0 402 874" fill="none" xmlns="http://www.w3.org/2000/svg">
<path fill-rule="evenodd" clip-rule="evenodd" d="M201 739.633C286.401 739.633 355.633 670.401 355.633 585C355.633 499.599 286.401 430.367 201 430.367C115.599 430.367 46.3672 499.599 46.3672 585C46.3672 670.401 115.599 739.633 201 739.633ZM204.801 440.735C202.68 438.546 199.169 438.546 197.047 440.735C195.079 442.765 191.877 442.933 189.708 441.119C187.369 439.164 183.877 439.531 181.997 441.93C180.252 444.155 177.085 444.657 174.738 443.079C172.208 441.38 168.773 442.11 167.153 444.691C165.65 447.087 162.554 447.917 160.054 446.594C157.36 445.168 154.021 446.253 152.68 448.99C151.436 451.529 148.443 452.678 145.819 451.624C142.991 450.487 139.783 451.915 138.735 454.777C137.763 457.433 134.907 458.889 132.187 458.114C129.255 457.279 126.215 459.035 125.472 461.991C124.783 464.734 122.094 466.48 119.308 465.994C116.305 465.47 113.465 467.534 113.035 470.551C112.637 473.351 110.145 475.369 107.323 475.176C104.283 474.969 101.673 477.319 101.561 480.364C101.458 483.191 99.1906 485.458 96.3645 485.561C93.3186 485.673 90.9692 488.283 91.1763 491.323C91.3686 494.145 89.3508 496.637 86.551 497.035C83.5336 497.465 81.4697 500.305 81.9936 503.308C82.4797 506.094 80.7335 508.783 77.9907 509.472C75.0347 510.215 73.279 513.255 74.1139 516.187C74.8886 518.907 73.433 521.763 70.7772 522.735C67.915 523.783 66.4869 526.991 67.6236 529.819C68.6783 532.443 67.5293 535.436 64.9897 536.68C62.2527 538.021 61.1676 541.36 62.5937 544.054C63.9169 546.554 63.0871 549.65 60.6915 551.153C58.1096 552.773 57.3796 556.208 59.0794 558.738C60.6567 561.085 60.1551 564.252 57.9297 565.997C55.5313 567.877 55.1643 571.369 57.1192 573.708C58.9332 575.877 58.7654 579.079 56.7346 581.047C54.5459 583.169 54.5459 586.68 56.7346 588.801C58.7654 590.769 58.9332 593.971 57.1192 596.141C55.1643 598.479 55.5313 601.971 57.9297 603.852C60.1551 605.597 60.6567 608.763 59.0794 611.111C57.3796 613.641 58.1096 617.075 60.6915 618.695C63.0871 620.198 63.9169 623.295 62.5937 625.794C61.1676 628.488 62.2527 631.827 64.9897 633.168C67.5293 634.412 68.6783 637.406 67.6236 640.03C66.4869 642.858 67.915 646.065 70.7772 647.113C73.433 648.085 74.8886 650.942 74.1139 653.662C73.279 656.593 75.0347 659.634 77.9907 660.376C80.7335 661.065 82.4797 663.754 81.9936 666.54C81.4697 669.543 83.5336 672.383 86.551 672.813C89.3508 673.212 91.3686 675.703 91.1763 678.525C90.9692 681.566 93.3186 684.175 96.3645 684.287C99.1906 684.391 101.458 686.658 101.561 689.484C101.673 692.53 104.283 694.879 107.323 694.672C110.145 694.48 112.637 696.497 113.035 699.297C113.465 702.315 116.305 704.379 119.308 703.855C122.094 703.369 124.783 705.115 125.472 707.858C126.215 710.814 129.255 712.569 132.187 711.734C134.907 710.96 137.763 712.415 138.735 715.071C139.783 717.933 142.991 719.361 145.819 718.225C148.443 717.17 151.436 718.319 152.68 720.859C154.021 723.596 157.36 724.681 160.054 723.255C162.554 721.931 165.65 722.761 167.153 725.157C168.773 727.739 172.208 728.469 174.738 726.769C177.085 725.192 180.252 725.693 181.997 727.919C183.877 730.317 187.369 730.684 189.708 728.729C191.877 726.915 195.079 727.083 197.047 729.114C199.169 731.302 202.68 731.302 204.801 729.114C206.769 727.083 209.971 726.915 212.141 728.729C214.479 730.684 217.971 730.317 219.852 727.919C221.597 725.693 224.763 725.192 227.111 726.769C229.641 728.469 233.075 727.739 234.695 725.157C236.198 722.761 239.295 721.931 241.794 723.255C244.488 724.681 247.827 723.596 249.168 720.859C250.412 718.319 253.406 717.17 256.03 718.225C258.858 719.361 262.065 717.933 263.113 715.071C264.085 712.415 266.942 710.96 269.662 711.734C272.593 712.569 275.634 710.814 276.376 707.858C277.065 705.115 279.754 703.369 282.54 703.855C285.543 704.379 288.383 702.315 288.813 699.297C289.212 696.497 291.703 694.48 294.525 694.672C297.566 694.879 300.175 692.53 300.287 689.484C300.391 686.658 302.658 684.391 305.484 684.287C308.53 684.175 310.879 681.566 310.672 678.525C310.48 675.703 312.497 673.212 315.297 672.813C318.315 672.383 320.379 669.543 319.855 666.54C319.369 663.754 321.115 661.065 323.858 660.376C326.814 659.634 328.569 656.593 327.734 653.662C326.96 650.942 328.415 648.085 331.071 647.113C333.933 646.065 335.361 642.858 334.225 640.03C333.17 637.406 334.319 634.412 336.859 633.168C339.596 631.827 340.681 628.488 339.255 625.794C337.931 623.295 338.761 620.198 341.157 618.695C343.739 617.075 344.469 613.641 342.769 611.111C341.192 608.763 341.693 605.597 343.919 603.852C346.317 601.971 346.684 598.479 344.729 596.141C342.915 593.971 343.083 590.769 345.114 588.801C347.302 586.68 347.302 583.169 345.114 581.047C343.083 579.079 342.915 575.877 344.729 573.708C346.684 571.369 346.317 567.877 343.919 565.997C341.693 564.252 341.192 561.085 342.769 558.738C344.469 556.208 343.739 552.773 341.157 551.153C338.761 549.65 337.931 546.554 339.255 544.054C340.681 541.36 339.596 538.021 336.859 536.68C334.319 535.436 333.17 532.443 334.225 529.819C335.361 526.991 333.933 523.783 331.071 522.735C328.415 521.763 326.96 518.907 327.734 516.187C328.569 513.255 326.814 510.215 323.858 509.472C321.115 508.783 319.369 506.094 319.855 503.308C320.379 500.305 318.315 497.465 315.297 497.035C312.497 496.637 310.48 494.145 310.672 491.323C310.879 488.283 308.53 485.673 305.484 485.561C302.658 485.458 300.391 483.191 300.287 480.364C300.175 477.319 297.566 474.969 294.525 475.176C291.703 475.369 289.212 473.351 288.813 470.551C288.383 467.534 285.543 465.47 282.54 465.994C279.754 466.48 277.065 464.734 276.376 461.991C275.634 459.035 272.593 457.279 269.662 458.114C266.942 458.889 264.085 457.433 263.113 454.777C262.065 451.915 258.858 450.487 256.03 451.624C253.406 452.678 250.412 451.529 249.168 448.99C247.827 446.253 244.488 445.168 241.794 446.594C239.295 447.917 236.198 447.087 234.695 444.691C233.075 442.11 229.641 441.38 227.111 443.079C224.763 444.657 221.597 444.155 219.852 441.93C217.971 439.531 214.479 439.164 212.141 441.119C209.971 442.933 206.769 442.765 204.801 440.735Z" fill="black"/>
<circle cx="201" cy="585" r="51" stroke="black" stroke-width="2"/>
<path d="M195 576L209 585L195 594V576Z" stroke="black" stroke-width="2" stroke-linecap="round" stroke-linejoin="round"/>
<g clip-path="url(#clip0_498_4461)">
<path d="M47.22 30H46.78C46.2496 30 45.7409 30.2107 45.3658 30.5858C44.9907 30.9609 44.78 31.4696 44.78 32V32.18C44.7796 32.5307 44.6871 32.8752 44.5115 33.1788C44.336 33.4825 44.0837 33.7346 43.78 33.91L43.35 34.16C43.046 34.3355 42.7011 34.4279 42.35 34.4279C41.9989 34.4279 41.654 34.3355 41.35 34.16L41.2 34.08C40.7411 33.8153 40.1958 33.7434 39.684 33.8803C39.1722 34.0172 38.7356 34.3515 38.47 34.81L38.25 35.19C37.9853 35.6489 37.9134 36.1942 38.0503 36.706C38.1872 37.2178 38.5215 37.6544 38.98 37.92L39.13 38.02C39.4323 38.1945 39.6836 38.4451 39.8591 38.7468C40.0345 39.0486 40.1279 39.391 40.13 39.74V40.25C40.1314 40.6024 40.0397 40.949 39.864 41.2545C39.6884 41.5601 39.4352 41.8138 39.13 41.99L38.98 42.08C38.5215 42.3456 38.1872 42.7822 38.0503 43.294C37.9134 43.8058 37.9853 44.3511 38.25 44.81L38.47 45.19C38.7356 45.6485 39.1722 45.9828 39.684 46.1197C40.1958 46.2566 40.7411 46.1847 41.2 45.92L41.35 45.84C41.654 45.6645 41.9989 45.5721 42.35 45.5721C42.7011 45.5721 43.046 45.6645 43.35 45.84L43.78 46.09C44.0837 46.2654 44.336 46.5175 44.5115 46.8212C44.6871 47.1248 44.7796 47.4693 44.78 47.82V48C44.78 48.5304 44.9907 49.0391 45.3658 49.4142C45.7409 49.7893 46.2496 50 46.78 50H47.22C47.7504 50 48.2591 49.7893 48.6342 49.4142C49.0093 49.0391 49.22 48.5304 49.22 48V47.82C49.2204 47.4693 49.3129 47.1248 49.4885 46.8212C49.664 46.5175 49.9163 46.2654 50.22 46.09L50.65 45.84C50.954 45.6645 51.2989 45.5721 51.65 45.5721C52.0011 45.5721 52.346 45.6645 52.65 45.84L52.8 45.92C53.2589 46.1847 53.8042 46.2566 54.316 46.1197C54.8278 45.9828 55.2645 45.6485 55.53 45.19L55.75 44.8C56.0147 44.3411 56.0866 43.7958 55.9497 43.284C55.8128 42.7722 55.4785 42.3356 55.02 42.07L54.87 41.99C54.5648 41.8138 54.3116 41.5601 54.136 41.2545C53.9604 40.949 53.8686 40.6024 53.87 40.25V39.75C53.8686 39.3976 53.9604 39.051 54.136 38.7455C54.3116 38.4399 54.5648 38.1862 54.87 38.01L55.02 37.92C55.4785 37.6544 55.8128 37.2178 55.9497 36.706C56.0866 36.1942 56.0147 35.6489 55.75 35.19L55.53 34.81C55.2645 34.3515 54.8278 34.0172 54.316 33.8803C53.8042 33.7434 53.2589 33.8153 52.8 34.08L52.65 34.16C52.346 34.3355 52.0011 34.4279 51.65 34.4279C51.2989 34.4279 50.954 34.3355 50.65 34.16L50.22 33.91C49.9163 33.7346 49.664 33.4825 49.4885 33.1788C49.3129 32.8752 49.2204 32.5307 49.22 32.18V32C49.22 31.4696 49.0093 30.9609 48.6342 30.5858C48.2591 30.2107 47.7504 30 47.22 30Z" stroke="#90A481" stroke-width="2" stroke-linecap="round" stroke-linejoin="round"/>
<path d="M47 43C48.6569 43 50 41.6569 50 40C50 38.3431 48.6569 37 47 37C45.3431 37 44 38.3431 44 40C44 41.6569 45.3431 43 47 43Z" stroke="#90A481" stroke-width="2" stroke-linecap="round" stroke-linejoin="round"/>
<path d="M353 30H357" stroke="#90A481" stroke-width="2" stroke-linecap="round" stroke-linejoin="round"/>
<path d="M355 42L358 39" stroke="#90A481" stroke-width="2" stroke-linecap="round" stroke-linejoin="round"/>
<path d="M355 50C359.418 50 363 46.4183 363 42C363 37.5817 359.418 34 355 34C350.582 34 347 37.5817 347 42C347 46.4183 350.582 50 355 50Z" stroke="#90A481" stroke-width="2" stroke-linecap="round" stroke-linejoin="round"/>
<path d="M36.784 279.784H39.064V282.4H36.784V286.144H33.928V282.4H25.648V280.456L32.752 268H36.784V279.784ZM33.928 271.096L28.984 279.784H33.928V271.096ZM46.3176 268H49.0776L43.4136 286.144H40.6536L46.3176 268ZM59.9871 279.784H62.2671V282.4H59.9871V286.144H57.1311V282.4H48.8511V280.456L55.9551 268H59.9871V279.784ZM57.1311 271.096L52.1871 279.784H57.1311V271.096Z" fill="#90A481"/>
<path d="M179.962 294.72H172.447V268.035L164.617 272.085V264.255L173.707 259.62H179.962V294.72ZM198.543 287.7H211.503V294.72H187.068V289.635L199.443 276.765C200.793 275.355 201.738 274.155 202.278 273.165C202.818 272.145 203.088 271.11 203.088 270.06C203.088 268.8 202.713 267.795 201.963 267.045C201.243 266.265 200.223 265.875 198.903 265.875C197.553 265.875 196.383 266.265 195.393 267.045C194.433 267.825 193.608 268.995 192.918 270.555L187.068 266.55C187.998 264.39 189.468 262.59 191.478 261.15C193.518 259.71 196.068 258.99 199.128 258.99C201.528 258.99 203.598 259.44 205.338 260.34C207.108 261.21 208.458 262.455 209.388 264.075C210.318 265.695 210.783 267.555 210.783 269.655C210.783 271.545 210.318 273.36 209.388 275.1C208.488 276.84 207.153 278.64 205.383 280.5L198.543 287.7ZM228.208 295.35C223.978 295.35 220.723 293.82 218.443 290.76C216.193 287.67 215.068 283.155 215.068 277.215C215.068 271.245 216.193 266.715 218.443 263.625C220.723 260.535 223.978 258.99 228.208 258.99C232.438 258.99 235.678 260.535 237.928 263.625C240.208 266.715 241.348 271.245 241.348 277.215C241.348 283.155 240.208 287.67 237.928 290.76C235.678 293.82 232.438 295.35 228.208 295.35ZM228.208 288.33C229.948 288.33 231.283 287.4 232.213 285.54C233.173 283.65 233.653 280.875 233.653 277.215C233.653 273.495 233.188 270.705 232.258 268.845C231.328 266.955 229.978 266.01 228.208 266.01C226.438 266.01 225.088 266.955 224.158 268.845C223.228 270.705 222.763 273.495 222.763 277.215C222.763 280.875 223.228 283.65 224.158 285.54C225.118 287.4 226.468 288.33 228.208 288.33Z" fill="#90A481"/>
<path d="M357 283V270L369 268V281" stroke="#90A481" stroke-width="2" stroke-linecap="round" stroke-linejoin="round"/>
<path d="M354 286C355.657 286 357 284.657 357 283C357 281.343 355.657 280 354 280C352.343 280 351 281.343 351 283C351 284.657 352.343 286 354 286Z" stroke="#90A481" stroke-width="2" stroke-linecap="round" stroke-linejoin="round"/>
<path d="M366 284C367.657 284 369 282.657 369 281C369 279.343 367.657 278 366 278C364.343 278 363 279.343 363 281C363 282.657 364.343 284 366 284Z" stroke="#90A481" stroke-width="2" stroke-linecap="round" stroke-linejoin="round"/>
<path d="M180.228 319.988H179.244L178.104 316.88H174.792L173.652 319.988H172.668L175.956 311.132H176.928L180.228 319.988ZM176.412 312.488L175.128 315.992H177.768L176.484 312.488H176.412ZM181.274 319.988V313.652H182.162V314.624H182.222C182.414 314.28 182.698 314.004 183.074 313.796C183.45 313.588 183.842 313.484 184.25 313.484C184.954 313.484 185.506 313.704 185.906 314.144C186.306 314.584 186.506 315.2 186.506 315.992V319.988H185.618V316.136C185.618 315.584 185.466 315.14 185.162 314.804C184.866 314.468 184.49 314.3 184.034 314.3C183.482 314.3 183.03 314.484 182.678 314.852C182.334 315.212 182.162 315.672 182.162 316.232V319.988H181.274ZM193.612 319.988H192.724V318.98H192.652C192.444 319.356 192.164 319.648 191.812 319.856C191.46 320.056 191.064 320.156 190.624 320.156C190.104 320.156 189.636 320.012 189.22 319.724C188.804 319.428 188.476 319.024 188.236 318.512C188.004 317.992 187.888 317.408 187.888 316.76C187.888 316.128 188.004 315.564 188.236 315.068C188.476 314.564 188.804 314.176 189.22 313.904C189.636 313.624 190.104 313.484 190.624 313.484C191.032 313.484 191.412 313.588 191.764 313.796C192.116 314.004 192.412 314.292 192.652 314.66H192.724V311.132H193.612V319.988ZM192.748 316.82C192.748 316.348 192.664 315.924 192.496 315.548C192.328 315.172 192.096 314.88 191.8 314.672C191.504 314.464 191.168 314.36 190.792 314.36C190.408 314.36 190.064 314.464 189.76 314.672C189.464 314.88 189.228 315.172 189.052 315.548C188.884 315.916 188.8 316.34 188.8 316.82C188.8 317.3 188.884 317.728 189.052 318.104C189.228 318.472 189.468 318.76 189.772 318.968C190.084 319.176 190.436 319.28 190.828 319.28C191.196 319.28 191.524 319.176 191.812 318.968C192.108 318.76 192.336 318.472 192.496 318.104C192.664 317.728 192.748 317.3 192.748 316.82ZM197.112 320.156C196.496 320.156 195.996 319.996 195.612 319.676C195.236 319.356 195.048 318.928 195.048 318.392C195.048 317.712 195.316 317.184 195.852 316.808C196.396 316.424 197.152 316.232 198.12 316.232H199.212V315.812C199.212 315.356 199.068 314.992 198.78 314.72C198.5 314.44 198.124 314.3 197.652 314.3C197.012 314.3 196.508 314.552 196.14 315.056L195.444 314.552C195.708 314.192 196.028 313.924 196.404 313.748C196.78 313.572 197.2 313.484 197.664 313.484C198.408 313.484 199 313.692 199.44 314.108C199.888 314.524 200.112 315.092 200.112 315.812V319.988H199.212V319.028H199.152C198.96 319.372 198.676 319.648 198.3 319.856C197.932 320.056 197.536 320.156 197.112 320.156ZM197.268 319.34C197.564 319.34 197.86 319.276 198.156 319.148C198.46 319.012 198.712 318.812 198.912 318.548C199.112 318.276 199.212 317.952 199.212 317.576V317.06H198.288C196.736 317.06 195.96 317.488 195.96 318.344C195.96 318.64 196.08 318.88 196.32 319.064C196.568 319.248 196.884 319.34 197.268 319.34ZM201.794 319.988V313.652H202.682V314.624H202.742C202.934 314.28 203.218 314.004 203.594 313.796C203.97 313.588 204.362 313.484 204.77 313.484C205.474 313.484 206.026 313.704 206.426 314.144C206.826 314.584 207.026 315.2 207.026 315.992V319.988H206.138V316.136C206.138 315.584 205.986 315.14 205.682 314.804C205.386 314.468 205.01 314.3 204.554 314.3C204.002 314.3 203.55 314.484 203.198 314.852C202.854 315.212 202.682 315.672 202.682 316.232V319.988H201.794ZM211.816 314.492H209.98V318.224C209.98 318.592 210.072 318.88 210.256 319.088C210.44 319.288 210.696 319.388 211.024 319.388C211.192 319.388 211.408 319.344 211.672 319.256V320.084C211.456 320.172 211.18 320.216 210.844 320.216C210.276 320.216 209.84 320.052 209.536 319.724C209.232 319.388 209.08 318.912 209.08 318.296V314.492H208.084V313.652H209.08V311.672H209.98V313.652H211.816V314.492ZM214.103 311.672C214.103 311.864 214.043 312.016 213.923 312.128C213.811 312.24 213.659 312.296 213.467 312.296C213.275 312.296 213.123 312.24 213.011 312.128C212.907 312.016 212.855 311.864 212.855 311.672C212.855 311.48 212.907 311.328 213.011 311.216C213.123 311.104 213.275 311.048 213.467 311.048C213.659 311.048 213.811 311.104 213.923 311.216C214.043 311.328 214.103 311.48 214.103 311.672ZM213.923 313.652V320H213.035V313.652H213.923ZM215.81 319.988V313.652H216.698V314.624H216.758C216.95 314.28 217.234 314.004 217.61 313.796C217.986 313.588 218.378 313.484 218.786 313.484C219.49 313.484 220.042 313.704 220.442 314.144C220.842 314.584 221.042 315.2 221.042 315.992V319.988H220.154V316.136C220.154 315.584 220.002 315.14 219.698 314.804C219.402 314.468 219.026 314.3 218.57 314.3C218.018 314.3 217.566 314.484 217.214 314.852C216.87 315.212 216.698 315.672 216.698 316.232V319.988H215.81ZM225.303 320.156C224.727 320.156 224.219 320.02 223.779 319.748C223.347 319.476 223.011 319.088 222.771 318.584C222.539 318.08 222.423 317.492 222.423 316.82C222.423 316.148 222.539 315.56 222.771 315.056C223.011 314.552 223.347 314.164 223.779 313.892C224.219 313.62 224.727 313.484 225.303 313.484C225.879 313.484 226.383 313.62 226.815 313.892C227.255 314.164 227.591 314.552 227.823 315.056C228.063 315.56 228.183 316.148 228.183 316.82C228.183 317.492 228.063 318.08 227.823 318.584C227.591 319.088 227.255 319.476 226.815 319.748C226.383 320.02 225.879 320.156 225.303 320.156ZM225.303 319.316C225.895 319.316 226.371 319.092 226.731 318.644C227.091 318.188 227.271 317.58 227.271 316.82C227.271 316.06 227.091 315.456 226.731 315.008C226.371 314.552 225.895 314.324 225.303 314.324C224.711 314.324 224.235 314.552 223.875 315.008C223.515 315.456 223.335 316.06 223.335 316.82C223.335 317.58 223.515 318.188 223.875 318.644C224.235 319.092 224.711 319.316 225.303 319.316Z" fill="#90A481"/>
<g clip-path="url(#clip1_498_4461)">
<rect opacity="0.6" x="14" y="371" width="1" height="12" fill="#90A481"/>
<path d="M49.49 348.1H48.11V342L46.47 342.86V341.42L48.37 340.45H49.49V348.1ZM53.968 348.24C53.0746 348.24 52.388 347.903 51.908 347.23C51.428 346.557 51.188 345.573 51.188 344.28C51.188 342.98 51.428 341.993 51.908 341.32C52.388 340.647 53.0746 340.31 53.968 340.31C54.868 340.31 55.558 340.647 56.038 341.32C56.518 341.993 56.758 342.98 56.758 344.28C56.758 345.573 56.518 346.557 56.038 347.23C55.558 347.903 54.868 348.24 53.968 348.24ZM53.968 346.96C54.408 346.96 54.748 346.733 54.988 346.28C55.228 345.827 55.348 345.16 55.348 344.28C55.348 343.393 55.228 342.723 54.988 342.27C54.748 341.817 54.408 341.59 53.968 341.59C53.528 341.59 53.188 341.817 52.948 342.27C52.7146 342.723 52.598 343.393 52.598 344.28C52.598 345.167 52.7146 345.837 52.948 346.29C53.188 346.737 53.528 346.96 53.968 346.96ZM60.5793 348.24C59.686 348.24 58.9993 347.903 58.5193 347.23C58.0393 346.557 57.7993 345.573 57.7993 344.28C57.7993 342.98 58.0393 341.993 58.5193 341.32C58.9993 340.647 59.686 340.31 60.5793 340.31C61.4793 340.31 62.1693 340.647 62.6493 341.32C63.1293 341.993 63.3693 342.98 63.3693 344.28C63.3693 345.573 63.1293 346.557 62.6493 347.23C62.1693 347.903 61.4793 348.24 60.5793 348.24ZM60.5793 346.96C61.0193 346.96 61.3593 346.733 61.5993 346.28C61.8393 345.827 61.9593 345.16 61.9593 344.28C61.9593 343.393 61.8393 342.723 61.5993 342.27C61.3593 341.817 61.0193 341.59 60.5793 341.59C60.1393 341.59 59.7993 341.817 59.5593 342.27C59.326 342.723 59.2093 343.393 59.2093 344.28C59.2093 345.167 59.326 345.837 59.5593 346.29C59.7993 346.737 60.1393 346.96 60.5793 346.96Z" fill="#90A481"/>
<rect opacity="0.6" x="22" y="371" width="1" height="12" fill="#90A481"/>
<rect opacity="0.6" x="30" y="371" width="1" height="12" fill="#90A481"/>
<rect opacity="0.6" x="38" y="371" width="1" height="12" fill="#90A481"/>
<rect opacity="0.6" x="46" y="371" width="1" height="12" fill="#90A481"/>
<rect opacity="0.6" x="54" y="357" width="2" height="26" fill="#90A481"/>
<rect opacity="0.6" x="63" y="371" width="1" height="12" fill="#90A481"/>
<rect opacity="0.6" x="71" y="371" width="1" height="12" fill="#90A481"/>
<rect opacity="0.6" x="79" y="371" width="1" height="12" fill="#90A481"/>
<rect opacity="0.6" x="87" y="371" width="1" height="12" fill="#90A481"/>
<path d="M123.49 348.1H122.11V342L120.47 342.86V341.42L122.37 340.45H123.49V348.1ZM128.158 348.1H126.778V342L125.138 342.86V341.42L127.038 340.45H128.158V348.1ZM132.636 348.24C131.743 348.24 131.056 347.903 130.576 347.23C130.096 346.557 129.856 345.573 129.856 344.28C129.856 342.98 130.096 341.993 130.576 341.32C131.056 340.647 131.743 340.31 132.636 340.31C133.536 340.31 134.226 340.647 134.706 341.32C135.186 341.993 135.426 342.98 135.426 344.28C135.426 345.573 135.186 346.557 134.706 347.23C134.226 347.903 133.536 348.24 132.636 348.24ZM132.636 346.96C133.076 346.96 133.416 346.733 133.656 346.28C133.896 345.827 134.016 345.16 134.016 344.28C134.016 343.393 133.896 342.723 133.656 342.27C133.416 341.817 133.076 341.59 132.636 341.59C132.196 341.59 131.856 341.817 131.616 342.27C131.383 342.723 131.266 343.393 131.266 344.28C131.266 345.167 131.383 345.837 131.616 346.29C131.856 346.737 132.196 346.96 132.636 346.96Z" fill="#90A481"/>
<rect opacity="0.6" x="95" y="371" width="1" height="12" fill="#90A481"/>
<rect opacity="0.6" x="103" y="371" width="1" height="12" fill="#90A481"/>
<rect opacity="0.6" x="111" y="371" width="1" height="12" fill="#90A481"/>
<rect opacity="0.6" x="119" y="371" width="1" height="12" fill="#90A481"/>
<rect opacity="0.6" x="127" y="357" width="2" height="26" fill="#90A481"/>
<rect opacity="0.6" x="136" y="371" width="1" height="12" fill="#90A481"/>
<rect opacity="0.6" x="144" y="371" width="1" height="12" fill="#90A481"/>
<rect opacity="0.6" x="152" y="371" width="1" height="12" fill="#90A481"/>
<rect opacity="0.6" x="160" y="371" width="1" height="12" fill="#90A481"/>
<path d="M195.49 348.1H194.11V342L192.47 342.86V341.42L194.37 340.45H195.49V348.1ZM199.148 346.82H202.238V348.1H197.108V347.12L199.738 344.32C200.085 343.947 200.328 343.64 200.468 343.4C200.608 343.153 200.678 342.9 200.678 342.64C200.678 342.313 200.581 342.053 200.388 341.86C200.195 341.667 199.928 341.57 199.588 341.57C198.975 341.57 198.505 341.927 198.178 342.64L197.108 341.9C197.301 341.433 197.611 341.053 198.038 340.76C198.471 340.46 199.005 340.31 199.638 340.31C200.131 340.31 200.561 340.403 200.928 340.59C201.301 340.777 201.588 341.04 201.788 341.38C201.988 341.72 202.088 342.117 202.088 342.57C202.088 342.983 201.988 343.377 201.788 343.75C201.595 344.123 201.288 344.533 200.868 344.98L199.148 346.82ZM205.896 348.24C205.002 348.24 204.316 347.903 203.836 347.23C203.356 346.557 203.116 345.573 203.116 344.28C203.116 342.98 203.356 341.993 203.836 341.32C204.316 340.647 205.002 340.31 205.896 340.31C206.796 340.31 207.486 340.647 207.966 341.32C208.446 341.993 208.686 342.98 208.686 344.28C208.686 345.573 208.446 346.557 207.966 347.23C207.486 347.903 206.796 348.24 205.896 348.24ZM205.896 346.96C206.336 346.96 206.676 346.733 206.916 346.28C207.156 345.827 207.276 345.16 207.276 344.28C207.276 343.393 207.156 342.723 206.916 342.27C206.676 341.817 206.336 341.59 205.896 341.59C205.456 341.59 205.116 341.817 204.876 342.27C204.642 342.723 204.526 343.393 204.526 344.28C204.526 345.167 204.642 345.837 204.876 346.29C205.116 346.737 205.456 346.96 205.896 346.96Z" fill="#90A481"/>
<rect opacity="0.6" x="168" y="371" width="1" height="12" fill="#90A481"/>
<rect opacity="0.6" x="176" y="371" width="1" height="12" fill="#90A481"/>
<rect opacity="0.6" x="184" y="371" width="1" height="12" fill="#90A481"/>
<rect opacity="0.6" x="192" y="371" width="1" height="12" fill="#90A481"/>
<rect opacity="0.6" x="200" y="357" width="2" height="26" fill="#90A481"/>
<rect opacity="0.6" x="209" y="371" width="1" height="12" fill="#90A481"/>
<rect opacity="0.6" x="217" y="371" width="1" height="12" fill="#90A481"/>
<rect opacity="0.6" x="225" y="371" width="1" height="12" fill="#90A481"/>
<rect opacity="0.6" x="233" y="371" width="1" height="12" fill="#90A481"/>
<path d="M268.49 348.1H267.11V342L265.47 342.86V341.42L267.37 340.45H268.49V348.1ZM273.068 343.48L273.238 343.47C273.611 343.47 273.961 343.563 274.288 343.75C274.621 343.93 274.888 344.193 275.088 344.54C275.288 344.887 275.388 345.293 275.388 345.76C275.388 346.247 275.275 346.68 275.048 347.06C274.828 347.433 274.518 347.723 274.118 347.93C273.718 348.137 273.258 348.24 272.738 348.24C272.118 348.24 271.581 348.097 271.128 347.81C270.681 347.517 270.345 347.127 270.118 346.64L271.198 345.9C271.371 346.26 271.581 346.533 271.828 346.72C272.081 346.9 272.388 346.99 272.748 346.99C273.121 346.99 273.425 346.877 273.658 346.65C273.891 346.423 274.008 346.127 274.008 345.76C274.008 345.38 273.891 345.08 273.658 344.86C273.431 344.633 273.121 344.513 272.728 344.5C272.468 344.5 272.205 344.58 271.938 344.74L271.188 343.76L273.188 341.73H270.388V340.45H274.998V341.58L273.048 343.43L273.068 343.48ZM279.15 348.24C278.256 348.24 277.57 347.903 277.09 347.23C276.61 346.557 276.37 345.573 276.37 344.28C276.37 342.98 276.61 341.993 277.09 341.32C277.57 340.647 278.256 340.31 279.15 340.31C280.05 340.31 280.74 340.647 281.22 341.32C281.7 341.993 281.94 342.98 281.94 344.28C281.94 345.573 281.7 346.557 281.22 347.23C280.74 347.903 280.05 348.24 279.15 348.24ZM279.15 346.96C279.59 346.96 279.93 346.733 280.17 346.28C280.41 345.827 280.53 345.16 280.53 344.28C280.53 343.393 280.41 342.723 280.17 342.27C279.93 341.817 279.59 341.59 279.15 341.59C278.71 341.59 278.37 341.817 278.13 342.27C277.896 342.723 277.78 343.393 277.78 344.28C277.78 345.167 277.896 345.837 278.13 346.29C278.37 346.737 278.71 346.96 279.15 346.96Z" fill="#90A481"/>
<rect opacity="0.6" x="241" y="371" width="1" height="12" fill="#90A481"/>
<rect opacity="0.6" x="249" y="371" width="1" height="12" fill="#90A481"/>
<rect opacity="0.6" x="257" y="371" width="1" height="12" fill="#90A481"/>
<rect opacity="0.6" x="265" y="371" width="1" height="12" fill="#90A481"/>
<rect opacity="0.6" x="273" y="357" width="2" height="26" fill="#90A481"/>
<rect opacity="0.6" x="282" y="371" width="1" height="12" fill="#90A481"/>
<rect opacity="0.6" x="290" y="371" width="1" height="12" fill="#90A481"/>
<rect opacity="0.6" x="298" y="371" width="1" height="12" fill="#90A481"/>
<rect opacity="0.6" x="306" y="371" width="1" height="12" fill="#90A481"/>
<path d="M341.49 348.1H340.11V342L338.47 342.86V341.42L340.37 340.45H341.49V348.1ZM347.758 345.32H348.708V346.59H347.758V348.1H346.378V346.59H342.928V345.68L345.828 340.45H347.758V345.32ZM346.378 341.96L344.538 345.32H346.378V341.96ZM352.257 348.24C351.364 348.24 350.677 347.903 350.197 347.23C349.717 346.557 349.477 345.573 349.477 344.28C349.477 342.98 349.717 341.993 350.197 341.32C350.677 340.647 351.364 340.31 352.257 340.31C353.157 340.31 353.847 340.647 354.327 341.32C354.807 341.993 355.047 342.98 355.047 344.28C355.047 345.573 354.807 346.557 354.327 347.23C353.847 347.903 353.157 348.24 352.257 348.24ZM352.257 346.96C352.697 346.96 353.037 346.733 353.277 346.28C353.517 345.827 353.637 345.16 353.637 344.28C353.637 343.393 353.517 342.723 353.277 342.27C353.037 341.817 352.697 341.59 352.257 341.59C351.817 341.59 351.477 341.817 351.237 342.27C351.004 342.723 350.887 343.393 350.887 344.28C350.887 345.167 351.004 345.837 351.237 346.29C351.477 346.737 351.817 346.96 352.257 346.96Z" fill="#90A481"/>
<rect opacity="0.6" x="314" y="371" width="1" height="12" fill="#90A481"/>
<rect opacity="0.6" x="322" y="371" width="1" height="12" fill="#90A481"/>
<rect opacity="0.6" x="330" y="371" width="1" height="12" fill="#90A481"/>
<rect opacity="0.6" x="338" y="371" width="1" height="12" fill="#90A481"/>
<rect opacity="0.6" x="346" y="357" width="2" height="26" fill="#90A481"/>
<rect opacity="0.6" x="355" y="371" width="1" height="12" fill="#90A481"/>
<rect opacity="0.6" x="363" y="371" width="1" height="12" fill="#90A481"/>
<rect opacity="0.6" x="371" y="371" width="1" height="12" fill="#90A481"/>
<rect opacity="0.6" x="379" y="371" width="1" height="12" fill="#90A481"/>
<rect opacity="0.6" x="387" y="371" width="1" height="12" fill="#90A481"/>
</g>
<path d="M10 86.8C10 59.9175 10 46.4762 15.2317 36.2085C19.8336 27.1767 27.1767 19.8336 36.2085 15.2317C46.4762 10 59.9175 10 86.8 10H315.2C342.083 10 355.524 10 365.792 15.2317C374.823 19.8336 382.166 27.1767 386.768 36.2085C392 46.4762 392 59.9175 392 86.8V369C392 377.401 392 381.601 390.365 384.81C388.927 387.632 386.632 389.927 383.81 391.365C380.601 393 376.401 393 368 393H34C25.5992 393 21.3988 393 18.1901 391.365C15.3677 389.927 13.073 387.632 11.6349 384.81C10 381.601 10 377.401 10 369V86.8Z" fill="black"/>
</g>
<mask id="path-70-outside-1_498_4461" maskUnits="userSpaceOnUse" x="0" y="773" width="402" height="3" fill="black">
<rect fill="white" y="773" width="402" height="3"/>
<path d="M0 773H402V775H0V773Z"/>
</mask>
<path d="M0 773H402V775H0V773Z" fill="black"/>
<path d="M402 774H0V776H402V774Z" fill="white" fill-opacity="0.5" mask="url(#path-70-outside-1_498_4461)"/>
<g clip-path="url(#clip2_498_4461)">
<g filter="url(#filter0_di_498_4461)">
<path d="M39.5 807L47.5 815M59.5 807L51.5 815M59.5 814C59.5 816.761 55.0228 819 49.5 819M59.5 814C59.5 811.239 55.0228 809 49.5 809C43.9772 809 39.5 811.239 39.5 814M59.5 814V822C59.5 823.326 58.4464 824.598 56.5711 825.536C54.6957 826.473 52.1522 827 49.5 827M49.5 819C43.9772 819 39.5 816.761 39.5 814M49.5 819V827M39.5 814V822C39.5 823.326 40.5536 824.598 42.4289 825.536C44.3043 826.473 46.8478 827 49.5 827M44.5 818.4V826.3M54.5 818.4V826.3" stroke="black" stroke-width="2" stroke-linecap="round" stroke-linejoin="round" shape-rendering="crispEdges"/>
</g>
</g>
<mask id="path-74-outside-2_498_4461" maskUnits="userSpaceOnUse" x="99" y="775" width="3" height="98" fill="black">
<rect fill="white" x="99" y="775" width="3" height="98"/>
<path d="M99 775H101V873H99V775Z"/>
</mask>
<path d="M99 775H101V873H99V775Z" fill="black"/>
<path d="M100 775V873H102V775H100Z" fill="white" fill-opacity="0.5" mask="url(#path-74-outside-2_498_4461)"/>
<path d="M159.5 820V811" stroke="black" stroke-width="2" stroke-linecap="round" stroke-linejoin="round"/>
<path d="M157 823C157.663 823 158.299 822.737 158.768 822.268C159.237 821.799 159.5 821.163 159.5 820.5C159.5 819.837 159.237 819.201 158.768 818.732C158.299 818.263 157.663 818 157 818C156.337 818 155.701 818.263 155.232 818.732C154.763 819.201 154.5 819.837 154.5 820.5C154.5 821.163 154.763 821.799 155.232 822.268C155.701 822.737 156.337 823 157 823Z" stroke="black" stroke-width="2" stroke-linecap="round" stroke-linejoin="round"/>
<path d="M150.5 817H141.5" stroke="black" stroke-width="2" stroke-linecap="round" stroke-linejoin="round"/>
<path d="M154.5 811H141.5" stroke="black" stroke-width="2" stroke-linecap="round" stroke-linejoin="round"/>
<path d="M150.5 823H141.5" stroke="black" stroke-width="2" stroke-linecap="round" stroke-linejoin="round"/>
<mask id="path-83-outside-3_498_4461" maskUnits="userSpaceOnUse" x="200" y="775" width="3" height="98" fill="black">
<rect fill="white" x="200" y="775" width="3" height="98"/>
<path d="M200 775H202V873H200V775Z"/>
</mask>
<path d="M200 775H202V873H200V775Z" fill="black"/>
<path d="M201 775V873H203V775H201Z" fill="white" fill-opacity="0.5" mask="url(#path-83-outside-3_498_4461)"/>
<path d="M242.5 816L251.5 807" stroke="black" stroke-width="2" stroke-linecap="round" stroke-linejoin="round"/>
<path d="M247.5 807H251.5V811" stroke="black" stroke-width="2" stroke-linecap="round" stroke-linejoin="round"/>
<path d="M241.5 825H246.5V820H251.5V815H256.5V810H261.5" stroke="black" stroke-width="2" stroke-linecap="round" stroke-linejoin="round"/>
<mask id="path-90-outside-4_498_4461" maskUnits="userSpaceOnUse" x="301" y="775" width="3" height="98" fill="black">
<rect fill="white" x="301" y="775" width="3" height="98"/>
<path d="M301 775H303V873H301V775Z"/>
</mask>
<path d="M301 775H303V873H301V775Z" fill="black"/>
<path d="M302 775V873H304V775H302Z" fill="white" fill-opacity="0.5" mask="url(#path-90-outside-4_498_4461)"/>
<path d="M343.5 808V824C343.5 824.53 343.711 825.039 344.086 825.414C344.461 825.789 344.97 826 345.5 826H361.5" stroke="black" stroke-width="2" stroke-linecap="round" stroke-linejoin="round"/>
<path d="M358.5 810H356.5C355.948 810 355.5 810.448 355.5 811V821C355.5 821.552 355.948 822 356.5 822H358.5C359.052 822 359.5 821.552 359.5 821V811C359.5 810.448 359.052 810 358.5 810Z" stroke="black" stroke-width="2" stroke-linecap="round" stroke-linejoin="round"/>
<path d="M350.5 813H348.5C347.948 813 347.5 813.448 347.5 814V821C347.5 821.552 347.948 822 348.5 822H350.5C351.052 822 351.5 821.552 351.5 821V814C351.5 813.448 351.052 813 350.5 813Z" stroke="black" stroke-width="2" stroke-linecap="round" stroke-linejoin="round"/>
<defs>
<filter id="filter0_di_498_4461" x="37.5" y="805" width="24" height="24" filterUnits="userSpaceOnUse" color-interpolation-filters="sRGB">
<feFlood flood-opacity="0" result="BackgroundImageFix"/>
<feColorMatrix in="SourceAlpha" type="matrix" values="0 0 0 0 0 0 0 0 0 0 0 0 0 0 0 0 0 0 127 0" result="hardAlpha"/>
<feOffset/>
<feGaussianBlur stdDeviation="0.5"/>
<feComposite in2="hardAlpha" operator="out"/>
<feColorMatrix type="matrix" values="0 0 0 0 0 0 0 0 0 0 0 0 0 0 0 0 0 0 0.42 0"/>
<feBlend mode="normal" in2="BackgroundImageFix" result="effect1_dropShadow_498_4461"/>
<feBlend mode="normal" in="SourceGraphic" in2="effect1_dropShadow_498_4461" result="shape"/>
<feColorMatrix in="SourceAlpha" type="matrix" values="0 0 0 0 0 0 0 0 0 0 0 0 0 0 0 0 0 0 127 0" result="hardAlpha"/>
<feOffset dy="-0.5"/>
<feGaussianBlur stdDeviation="0.25"/>
<feComposite in2="hardAlpha" operator="arithmetic" k2="-1" k3="1"/>
<feColorMatrix type="matrix" values="0 0 0 0 1 0 0 0 0 1 0 0 0 0 1 0 0 0 0.78 0"/>
<feBlend mode="normal" in2="shape" result="effect2_innerShadow_498_4461"/>
</filter>
<clipPath id="clip0_498_4461">
<rect width="382" height="383" fill="white" transform="translate(10 10)"/>
</clipPath>
<clipPath id="clip1_498_4461">
<rect width="504" height="45" fill="white" transform="translate(-51 338)"/>
</clipPath>
<clipPath id="clip2_498_4461">
<rect width="24" height="24" fill="white" transform="translate(37.5 805)"/>
</clipPath>
</defs>
</svg>
