<svg width="44" height="44" viewBox="0 0 44 44" fill="none" xmlns="http://www.w3.org/2000/svg">
<path d="M22.7 9.74L22.785 9.735C22.9717 9.735 23.1467 9.78167 23.31 9.875C23.4767 9.965 23.61 10.0967 23.71 10.27C23.81 10.4433 23.86 10.6467 23.86 10.88C23.86 11.1233 23.8033 11.34 23.69 11.53C23.58 11.7167 23.425 11.8617 23.225 11.965C23.025 12.0683 22.795 12.12 22.535 12.12C22.225 12.12 21.9567 12.0483 21.73 11.905C21.5067 11.7583 21.3383 11.5633 21.225 11.32L21.765 10.95C21.8517 11.13 21.9567 11.2667 22.08 11.36C22.2067 11.45 22.36 11.495 22.54 11.495C22.7267 11.495 22.8783 11.4383 22.995 11.325C23.1117 11.2117 23.17 11.0633 23.17 10.88C23.17 10.69 23.1117 10.54 22.995 10.43C22.8817 10.3167 22.7267 10.2567 22.53 10.25C22.4 10.25 22.2683 10.29 22.135 10.37L21.76 9.88L22.76 8.865H21.36V8.225H23.665V8.79L22.69 9.715L22.7 9.74Z" fill="black"/>
<rect x="10" y="10" width="9" height="1" fill="black"/>
<rect x="26" y="10" width="9" height="1" fill="black"/>
<rect x="10" y="10" width="1" height="3" fill="black"/>
<rect x="34" y="10" width="1" height="3" fill="black"/>
<path d="M36.3903 20.4867C36.2315 20.4867 36.1653 20.5574 36.0564 20.673C35.6915 21.0604 34.7677 21.9348 33.6808 22.1553C33.7165 22.0315 33.7409 21.9035 33.7409 21.768C33.7409 20.9979 33.1272 20.3735 32.371 20.3735C31.6137 20.3735 31 20.9979 31 21.768C31 22.4531 31.4862 23.0196 32.1259 23.1369C32.4636 23.2418 33.1596 23.3376 34.2352 22.9106C34.6492 22.7463 34.9954 22.5307 35.2836 22.3036L32.2786 28.1212C32.1654 28.3403 32.3165 28.6031 32.5627 28.6156C32.6938 28.6222 32.8163 28.5537 32.8782 28.438C33.425 27.4167 36.0354 22.5328 36.7933 20.9654C36.92 20.7032 36.6815 20.4867 36.3903 20.4867Z" fill="black"/>
<path d="M14.3903 20.4867C14.2315 20.4867 14.1653 20.5574 14.0564 20.673C13.6915 21.0604 12.7677 21.9348 11.6808 22.1553C11.7165 22.0315 11.7409 21.9035 11.7409 21.768C11.7409 20.9979 11.1272 20.3735 10.371 20.3735C9.61368 20.3735 9 20.9979 9 21.768C9 22.4531 9.48623 23.0196 10.1259 23.1369C10.4636 23.2418 11.1596 23.3376 12.2352 22.9106C12.6492 22.7463 12.9954 22.5307 13.2836 22.3036L10.2786 28.1212C10.1654 28.3403 10.3165 28.6031 10.5627 28.6156C10.6938 28.6222 10.8163 28.5537 10.8782 28.438C11.425 27.4167 14.0354 22.5328 14.7933 20.9654C14.92 20.7032 14.6815 20.4867 14.3903 20.4867Z" fill="black"/>
<rect x="22" y="15" width="1" height="14" rx="0.5" fill="black"/>
<path d="M22.7913 28.1644C23.4472 29.3814 22.5054 31.2794 20.6877 32.4036C18.8699 33.5279 16.8646 33.4527 16.2087 32.2356C15.5528 31.0186 16.4946 29.1206 18.3123 27.9963C20.1301 26.8721 22.1354 26.9473 22.7913 28.1644Z" fill="black"/>
<rect x="22.7071" y="15" width="5.70382" height="1" rx="0.5" transform="rotate(45 22.7071 15)" fill="black"/>
</svg>
