<svg width="44" height="44" viewBox="0 0 44 44" fill="none" xmlns="http://www.w3.org/2000/svg">
<rect x="11" y="16" width="1" height="14" fill="black"/>
<path d="M11.7913 28.9644C12.4472 30.1814 11.5054 32.0794 9.68765 33.2036C7.86991 34.3279 5.8646 34.2527 5.20868 33.0356C4.55275 31.8186 5.4946 29.9206 7.31235 28.7964C9.13009 27.6721 11.1354 27.7473 11.7913 28.9644Z" fill="black"/>
<rect x="23" y="16" width="1" height="14" fill="black"/>
<path d="M23.7913 28.9644C24.4472 30.1814 23.5054 32.0794 21.6877 33.2036C19.8699 34.3279 17.8646 34.2527 17.2087 33.0356C16.5528 31.8186 17.4946 29.9206 19.3123 28.7964C21.1301 27.6721 23.1354 27.7473 23.7913 28.9644Z" fill="black"/>
<rect x="11" y="15" width="13" height="2" fill="black"/>
<path d="M23.7 9.74L23.785 9.735C23.9717 9.735 24.1467 9.78167 24.31 9.875C24.4767 9.965 24.61 10.0967 24.71 10.27C24.81 10.4433 24.86 10.6467 24.86 10.88C24.86 11.1233 24.8033 11.34 24.69 11.53C24.58 11.7167 24.425 11.8617 24.225 11.965C24.025 12.0683 23.795 12.12 23.535 12.12C23.225 12.12 22.9567 12.0483 22.73 11.905C22.5067 11.7583 22.3383 11.5633 22.225 11.32L22.765 10.95C22.8517 11.13 22.9567 11.2667 23.08 11.36C23.2067 11.45 23.36 11.495 23.54 11.495C23.7267 11.495 23.8783 11.4383 23.995 11.325C24.1117 11.2117 24.17 11.0633 24.17 10.88C24.17 10.69 24.1117 10.54 23.995 10.43C23.8817 10.3167 23.7267 10.2567 23.53 10.25C23.4 10.25 23.2683 10.29 23.135 10.37L22.76 9.88L23.76 8.865H22.36V8.225H24.665V8.79L23.69 9.715L23.7 9.74Z" fill="black"/>
<rect x="11" y="10" width="9" height="1" fill="black"/>
<rect x="27" y="10" width="9" height="1" fill="black"/>
<rect x="11" y="10" width="1" height="3" fill="black"/>
<rect x="35" y="10" width="1" height="3" fill="black"/>
<path d="M35.3903 20.4867C35.2315 20.4867 35.1653 20.5574 35.0564 20.673C34.6915 21.0604 33.7677 21.9348 32.6808 22.1553C32.7165 22.0315 32.7409 21.9035 32.7409 21.768C32.7409 20.9979 32.1272 20.3735 31.371 20.3735C30.6137 20.3735 30 20.9979 30 21.768C30 22.4531 30.4862 23.0196 31.1259 23.1369C31.4636 23.2418 32.1596 23.3376 33.2352 22.9106C33.6492 22.7463 33.9954 22.5307 34.2836 22.3036L31.2786 28.1212C31.1654 28.3403 31.3165 28.6031 31.5627 28.6156C31.6938 28.6222 31.8163 28.5537 31.8782 28.438C32.425 27.4167 35.0354 22.5328 35.7933 20.9654C35.92 20.7032 35.6815 20.4867 35.3903 20.4867Z" fill="black"/>
</svg>
