<svg width="44" height="44" viewBox="0 0 44 44" fill="none" xmlns="http://www.w3.org/2000/svg">
<rect x="23" y="11" width="1" height="19" fill="black"/>
<path d="M23.7913 28.9644C24.4472 30.1814 23.5054 32.0794 21.6877 33.2036C19.8699 34.3279 17.8646 34.2527 17.2087 33.0356C16.5528 31.8186 17.4946 29.9206 19.3123 28.7964C21.1301 27.6721 23.1354 27.7473 23.7913 28.9644Z" fill="black"/>
<path d="M35 11.5018C35 11.2257 35.2239 11 35.5 11C35.7761 11 36 11.2239 36 11.5V30H35C35 22.749 35 18.6111 35 11.5018Z" fill="black"/>
<path d="M35.7913 28.9644C36.4472 30.1814 35.5054 32.0794 33.6877 33.2036C31.8699 34.3279 29.8646 34.2527 29.2087 33.0356C28.5528 31.8186 29.4946 29.9206 31.3123 28.7964C33.1301 27.6721 35.1354 27.7473 35.7913 28.9644Z" fill="black"/>
<rect x="11" y="11" width="1" height="19" fill="black"/>
<path d="M11.7913 28.9644C12.4472 30.1814 11.5054 32.0794 9.68765 33.2036C7.86991 34.3279 5.8646 34.2527 5.20868 33.0356C4.55275 31.8186 5.4946 29.9206 7.31235 28.7964C9.13009 27.6721 11.1354 27.7473 11.7913 28.9644Z" fill="black"/>
<rect x="11" y="11" width="13" height="2" fill="black"/>
</svg>
