<svg width="44" height="44" viewBox="0 0 44 44" fill="none" xmlns="http://www.w3.org/2000/svg">
<rect x="35" y="11" width="1" height="19" fill="black"/>
<path d="M35.7913 28.9644C36.4472 30.1814 35.5054 32.0794 33.6877 33.2036C31.8699 34.3279 29.8646 34.2527 29.2087 33.0356C28.5528 31.8186 29.4946 29.9206 31.3123 28.7964C33.1301 27.6721 35.1354 27.7473 35.7913 28.9644Z" fill="black"/>
<rect x="11" y="11" width="1" height="19" fill="black"/>
<path d="M11.7913 28.9644C12.4472 30.1814 11.5054 32.0794 9.68765 33.2036C7.86991 34.3279 5.8646 34.2527 5.20868 33.0356C4.55275 31.8186 5.4946 29.9206 7.31235 28.7964C9.13009 27.6721 11.1354 27.7473 11.7913 28.9644Z" fill="black"/>
<rect x="11" y="11" width="25" height="2" fill="black"/>
<rect x="12" y="15" width="24" height="2" fill="black"/>
<rect x="27" y="19" width="9" height="2" fill="black"/>
<circle cx="16.5" cy="29.5" r="1.5" fill="black"/>
</svg>
