<svg width="44" height="44" viewBox="0 0 44 44" fill="none" xmlns="http://www.w3.org/2000/svg">
<rect x="11" y="16" width="1" height="14" fill="black"/>
<path d="M11.7913 28.9644C12.4472 30.1814 11.5054 32.0794 9.68765 33.2036C7.86991 34.3279 5.8646 34.2527 5.20868 33.0356C4.55275 31.8186 5.4946 29.9206 7.31235 28.7964C9.13009 27.6721 11.1354 27.7473 11.7913 28.9644Z" fill="black"/>
<rect x="35" y="16" width="1" height="14" fill="black"/>
<path d="M35.7913 28.9644C36.4472 30.1814 35.5054 32.0794 33.6877 33.2036C31.8699 34.3279 29.8646 34.2527 29.2087 33.0356C28.5528 31.8186 29.4946 29.9206 31.3123 28.7964C33.1301 27.6721 35.1354 27.7473 35.7913 28.9644Z" fill="black"/>
<rect x="11" y="15" width="25" height="2" fill="black"/>
<rect x="11" y="19" width="25" height="2" fill="black"/>
<path d="M23.7 9.74L23.785 9.735C23.9717 9.735 24.1467 9.78167 24.31 9.875C24.4767 9.965 24.61 10.0967 24.71 10.27C24.81 10.4433 24.86 10.6467 24.86 10.88C24.86 11.1233 24.8033 11.34 24.69 11.53C24.58 11.7167 24.425 11.8617 24.225 11.965C24.025 12.0683 23.795 12.12 23.535 12.12C23.225 12.12 22.9567 12.0483 22.73 11.905C22.5067 11.7583 22.3383 11.5633 22.225 11.32L22.765 10.95C22.8517 11.13 22.9567 11.2667 23.08 11.36C23.2067 11.45 23.36 11.495 23.54 11.495C23.7267 11.495 23.8783 11.4383 23.995 11.325C24.1117 11.2117 24.17 11.0633 24.17 10.88C24.17 10.69 24.1117 10.54 23.995 10.43C23.8817 10.3167 23.7267 10.2567 23.53 10.25C23.4 10.25 23.2683 10.29 23.135 10.37L22.76 9.88L23.76 8.865H22.36V8.225H24.665V8.79L23.69 9.715L23.7 9.74Z" fill="black"/>
<rect x="11" y="10" width="9" height="1" fill="black"/>
<rect x="27" y="10" width="9" height="1" fill="black"/>
<rect x="11" y="10" width="1" height="3" fill="black"/>
<rect x="35" y="10" width="1" height="3" fill="black"/>
<path d="M26.0008 23.1206C26.0008 23.1206 24.7719 24.5941 23.2451 24.8986C23.2834 24.7666 23.3102 24.6302 23.3102 24.4859C23.3102 23.6653 22.645 23 21.8252 23C21.0042 23 20.3389 23.6653 20.3389 24.4859C20.3389 25.2158 20.866 25.8195 21.5604 25.9445C21.9247 26.0562 22.6806 26.1583 23.8453 25.7034C24.2945 25.5282 24.6703 25.2986 24.9827 25.0566L24.097 26.7422C23.594 27.1932 22.8012 27.7718 21.9062 27.95C21.9436 27.8184 21.9713 27.6816 21.9713 27.5373C21.9713 26.7167 21.306 26.0523 20.4854 26.0523C19.6653 26.0523 19 26.7167 19 27.5373C19 28.2672 19.5276 28.8709 20.221 28.9968C20.5858 29.1076 21.3417 29.2097 22.5064 28.7548C22.7721 28.6509 23.011 28.5264 23.2288 28.394L20.221 34H21.057C21.057 34 26.9636 23.1206 26.843 23.1206C26.7224 23.1206 26.0008 23.1206 26.0008 23.1206Z" fill="black"/>
</svg>
