<svg width="44" height="44" viewBox="0 0 44 44" fill="none" xmlns="http://www.w3.org/2000/svg">
<rect x="34" y="11.2" width="1" height="18" rx="0.5" fill="black"/>
<path d="M34.7913 28.1644C35.4472 29.3814 34.5054 31.2794 32.6877 32.4036C30.8699 33.5279 28.8646 33.4527 28.2087 32.2356C27.5528 31.0186 28.4946 29.1206 30.3123 27.9963C32.1301 26.8721 34.1354 26.9473 34.7913 28.1644Z" fill="black"/>
<rect x="34.6" y="11" width="7" height="1" rx="0.5" transform="rotate(45 34.6 11)" fill="black"/>
<rect x="34.7071" y="15.2" width="7" height="1" rx="0.5" transform="rotate(45 34.7071 15.2)" fill="black"/>
<rect x="34.7071" y="19.2" width="7" height="1" rx="0.5" transform="rotate(45 34.7071 19.2)" fill="black"/>
<rect x="16" y="11.2" width="1" height="18" rx="0.5" fill="black"/>
<path d="M16.7913 28.1644C17.4472 29.3814 16.5054 31.2794 14.6877 32.4036C12.8699 33.5279 10.8646 33.4527 10.2087 32.2356C9.55275 31.0186 10.4946 29.1206 12.3123 27.9963C14.1301 26.8721 16.1354 26.9473 16.7913 28.1644Z" fill="black"/>
<rect x="16.6" y="11" width="7" height="1" rx="0.5" transform="rotate(45 16.6 11)" fill="black"/>
<rect x="16.7071" y="15.2" width="7" height="1" rx="0.5" transform="rotate(45 16.7071 15.2)" fill="black"/>
<rect x="16.7071" y="19.3" width="7" height="1" rx="0.5" transform="rotate(45 16.7071 19.3)" fill="black"/>
<path d="M13.0009 17.1206C13.0009 17.1206 11.772 18.5941 10.2452 18.8986C10.2834 18.7666 10.3103 18.6302 10.3103 18.4859C10.3103 17.6653 9.64499 17 8.82526 17C8.00422 17 7.33893 17.6653 7.33893 18.4859C7.33893 19.2158 7.86606 19.8195 8.56038 19.9445C8.92471 20.0562 9.68063 20.1583 10.8453 19.7034C11.2946 19.5282 11.6703 19.2986 11.9827 19.0566L11.097 20.7422C10.5941 21.1932 9.80119 21.7718 8.90623 21.95C8.94363 21.8184 8.97134 21.6816 8.97134 21.5373C8.97134 20.7167 8.30606 20.0523 7.48545 20.0523C6.66529 20.0523 6 20.7167 6 21.5373C6 22.2672 6.52757 22.8709 7.22101 22.9968C7.58577 23.1076 8.3417 23.2097 9.50639 22.7548C9.77215 22.6509 10.0111 22.5264 10.2289 22.394L7.22101 28H8.05702C8.05702 28 13.9636 17.1206 13.8431 17.1206C13.7225 17.1206 13.0009 17.1206 13.0009 17.1206Z" fill="black"/>
<path d="M31.0008 17.1206C31.0008 17.1206 29.7719 18.5941 28.2451 18.8986C28.2834 18.7666 28.3102 18.6302 28.3102 18.4859C28.3102 17.6653 27.645 17 26.8252 17C26.0042 17 25.3389 17.6653 25.3389 18.4859C25.3389 19.2158 25.866 19.8195 26.5604 19.9445C26.9247 20.0562 27.6806 20.1583 28.8453 19.7034C29.2945 19.5282 29.6703 19.2986 29.9827 19.0566L29.097 20.7422C28.594 21.1932 27.8012 21.7718 26.9062 21.95C26.9436 21.8184 26.9713 21.6816 26.9713 21.5373C26.9713 20.7167 26.306 20.0523 25.4854 20.0523C24.6653 20.0523 24 20.7167 24 21.5373C24 22.2672 24.5276 22.8709 25.221 22.9968C25.5858 23.1076 26.3417 23.2097 27.5064 22.7548C27.7721 22.6509 28.011 22.5264 28.2288 22.394L25.221 28H26.057C26.057 28 31.9636 17.1206 31.843 17.1206C31.7224 17.1206 31.0008 17.1206 31.0008 17.1206Z" fill="black"/>
</svg>
