<svg width="44" height="44" viewBox="0 0 44 44" fill="none" xmlns="http://www.w3.org/2000/svg">
<path d="M23 12.5C23 12.2239 23.2239 12 23.5 12C23.7761 12 24 12.2239 24 12.5V30H23V12.5Z" fill="black"/>
<path d="M23.7913 28.9644C24.4472 30.1814 23.5054 32.0794 21.6877 33.2036C19.8699 34.3279 17.8646 34.2527 17.2087 33.0356C16.5528 31.8186 17.4946 29.9206 19.3123 28.7964C21.1301 27.6721 23.1354 27.7473 23.7913 28.9644Z" fill="black"/>
<rect x="11" y="12.2" width="1" height="18" rx="0.5" fill="black"/>
<path d="M11.7913 29.1644C12.4472 30.3814 11.5054 32.2794 9.68765 33.4037C7.86991 34.5279 5.8646 34.4527 5.20868 33.2357C4.55275 32.0186 5.4946 30.1206 7.31235 28.9964C9.13009 27.8721 11.1354 27.9473 11.7913 29.1644Z" fill="black"/>
<rect x="11.6" y="12" width="7.83989" height="1" rx="0.5" transform="rotate(45 11.6 12)" fill="black"/>
<rect x="34" y="12.2" width="1" height="18" rx="0.5" fill="black"/>
<path d="M34.7913 29.1644C35.4472 30.3814 34.5054 32.2794 32.6877 33.4037C30.8699 34.5279 28.8646 34.4527 28.2087 33.2357C27.5528 32.0186 28.4946 30.1206 30.3123 28.9964C32.1301 27.8721 34.1354 27.9473 34.7913 29.1644Z" fill="black"/>
<rect x="34.6" y="12" width="7.83989" height="1" rx="0.5" transform="rotate(45 34.6 12)" fill="black"/>
</svg>
