<svg width="44" height="44" viewBox="0 0 44 44" fill="none" xmlns="http://www.w3.org/2000/svg">
<path d="M30 11.5C30 11.2239 30.2239 11 30.5 11C30.7761 11 31 11.2239 31 11.5V29H30V11.5Z" fill="black"/>
<path d="M30.7913 27.9644C31.4472 29.1814 30.5054 31.0794 28.6877 32.2036C26.8699 33.3279 24.8646 33.2527 24.2087 32.0356C23.5528 30.8186 24.4946 28.9206 26.3123 27.7964C28.1301 26.6721 30.1354 26.7473 30.7913 27.9644Z" fill="black"/>
<path d="M16.001 15L19 17.8005C19 17.8005 17.844 17.7002 17.2009 19.7C16.5984 21.5723 19 23.0995 19 23.0995C19 23.0995 15.7871 23.5998 16.7721 25.8002L17.972 28C17.972 28 11.4597 24.4997 17.7151 22.6999L15.2299 20.2003C15.2299 20.2003 16.7721 17.4004 16.001 15Z" fill="black"/>
</svg>
