<svg width="44" height="44" viewBox="0 0 44 44" fill="none" xmlns="http://www.w3.org/2000/svg">
<path d="M27 12.5C27 12.2239 27.2239 12 27.5 12C27.7761 12 28 12.2239 28 12.5V30H27V12.5Z" fill="black"/>
<path d="M27.3512 29.2016C27.5749 29.6166 27.5579 30.2141 27.2192 30.8965C26.8847 31.5707 26.2636 32.2595 25.4246 32.7784C24.5849 33.2978 23.7259 33.524 23.0312 33.498C22.3346 33.4719 21.8666 33.2024 21.6488 32.7984C21.4251 32.3834 21.4421 31.7859 21.7808 31.1035C22.1153 30.4293 22.7364 29.7405 23.5754 29.2216C24.4151 28.7022 25.2741 28.476 25.9688 28.502C26.6654 28.5281 27.1334 28.7976 27.3512 29.2016Z" stroke="black"/>
<circle cx="31.5" cy="29.5" r="1.5" fill="black"/>
<rect x="14" y="12.2" width="1" height="18" rx="0.5" fill="black"/>
<path d="M14.7913 29.1644C15.4472 30.3814 14.5054 32.2794 12.6877 33.4037C10.8699 34.5279 8.8646 34.4527 8.20868 33.2357C7.55275 32.0186 8.4946 30.1206 10.3123 28.9964C12.1301 27.8721 14.1354 27.9473 14.7913 29.1644Z" fill="black"/>
</svg>
