<svg width="44" height="44" viewBox="0 0 44 44" fill="none" xmlns="http://www.w3.org/2000/svg">
<rect x="28" y="11.2" width="1" height="18" rx="0.5" fill="black"/>
<path d="M28.7913 28.1644C29.4472 29.3814 28.5054 31.2794 26.6877 32.4036C24.8699 33.5279 22.8646 33.4527 22.2087 32.2356C21.5528 31.0186 22.4946 29.1206 24.3123 27.9963C26.1301 26.8721 28.1354 26.9473 28.7913 28.1644Z" fill="black"/>
<rect x="28.6" y="11" width="7.83989" height="1" rx="0.5" transform="rotate(45 28.6 11)" fill="black"/>
<path d="M19.2887 16.8178C19.1034 16.8178 19.0261 16.9003 18.8991 17.0352C18.4735 17.4871 17.3956 18.5072 16.1276 18.7646C16.1692 18.6201 16.1977 18.4707 16.1977 18.3127C16.1977 17.4142 15.4817 16.6858 14.5995 16.6858C13.716 16.6858 13 17.4142 13 18.3127C13 19.1119 13.5673 19.7729 14.3135 19.9097C14.7075 20.0321 15.5196 20.1439 16.7744 19.6457C17.2574 19.454 17.6613 19.2025 17.9975 18.9375L14.4917 25.7247C14.3597 25.9803 14.5359 26.2869 14.8232 26.3015C14.976 26.3093 15.1191 26.2293 15.1913 26.0944C15.8292 24.9028 18.8747 19.2049 19.7588 17.3763C19.9067 17.0705 19.6284 16.8178 19.2887 16.8178Z" fill="black"/>
</svg>
