<svg width="44" height="44" viewBox="0 0 44 44" fill="none" xmlns="http://www.w3.org/2000/svg">
<path d="M14 12.5C14 12.2239 14.2239 12 14.5 12C14.7761 12 15 12.2239 15 12.5V30H14V12.5Z" fill="black"/>
<path d="M14.3512 29.2016C14.5749 29.6166 14.5579 30.2141 14.2192 30.8965C13.8847 31.5707 13.2636 32.2595 12.4246 32.7784C11.5849 33.2978 10.7259 33.524 10.0312 33.498C9.33462 33.4719 8.86656 33.2024 8.64882 32.7984C8.42513 32.3834 8.44215 31.7859 8.78077 31.1035C9.11531 30.4293 9.73639 29.7405 10.5754 29.2216C11.4151 28.7022 12.2741 28.476 12.9688 28.502C13.6654 28.5281 14.1334 28.7976 14.3512 29.2016Z" stroke="black"/>
<circle cx="18.5" cy="29.5" r="1.5" fill="black"/>
<rect x="31" y="12.2" width="1" height="18" rx="0.5" fill="black"/>
<path d="M31.7913 29.1644C32.4472 30.3814 31.5054 32.2794 29.6877 33.4037C27.8699 34.5279 25.8646 34.4527 25.2087 33.2357C24.5528 32.0186 25.4946 30.1206 27.3123 28.9964C29.1301 27.8721 31.1354 27.9473 31.7913 29.1644Z" fill="black"/>
</svg>
