<svg width="44" height="44" viewBox="0 0 44 44" fill="none" xmlns="http://www.w3.org/2000/svg">
<path d="M14 12.5C14 12.2239 14.2239 12 14.5 12C14.7761 12 15 12.2239 15 12.5V30H14V12.5Z" fill="black"/>
<path d="M14.7913 28.9644C15.4472 30.1814 14.5054 32.0794 12.6877 33.2036C10.8699 34.3279 8.8646 34.2527 8.20868 33.0356C7.55275 31.8186 8.4946 29.9206 10.3123 28.7964C12.1301 27.6721 14.1354 27.7473 14.7913 28.9644Z" fill="black"/>
<circle cx="18.5" cy="29.5" r="1.5" fill="black"/>
<rect x="31" y="12.2" width="1" height="18" rx="0.5" fill="black"/>
<path d="M31.7913 29.1644C32.4472 30.3814 31.5054 32.2794 29.6877 33.4037C27.8699 34.5279 25.8646 34.4527 25.2087 33.2357C24.5528 32.0186 25.4946 30.1206 27.3123 28.9964C29.1301 27.8721 31.1354 27.9473 31.7913 29.1644Z" fill="black"/>
<rect x="31.6" y="12" width="7.83989" height="1" rx="0.5" transform="rotate(45 31.6 12)" fill="black"/>
</svg>
