<svg width="44" height="44" viewBox="0 0 44 44" fill="none" xmlns="http://www.w3.org/2000/svg">
<path d="M22.7 9.74L22.785 9.735C22.9717 9.735 23.1467 9.78167 23.31 9.875C23.4767 9.965 23.61 10.0967 23.71 10.27C23.81 10.4433 23.86 10.6467 23.86 10.88C23.86 11.1233 23.8033 11.34 23.69 11.53C23.58 11.7167 23.425 11.8617 23.225 11.965C23.025 12.0683 22.795 12.12 22.535 12.12C22.225 12.12 21.9567 12.0483 21.73 11.905C21.5067 11.7583 21.3383 11.5633 21.225 11.32L21.765 10.95C21.8517 11.13 21.9567 11.2667 22.08 11.36C22.2067 11.45 22.36 11.495 22.54 11.495C22.7267 11.495 22.8783 11.4383 22.995 11.325C23.1117 11.2117 23.17 11.0633 23.17 10.88C23.17 10.69 23.1117 10.54 22.995 10.43C22.8817 10.3167 22.7267 10.2567 22.53 10.25C22.4 10.25 22.2683 10.29 22.135 10.37L21.76 9.88L22.76 8.865H21.36V8.225H23.665V8.79L22.69 9.715L22.7 9.74Z" fill="black"/>
<rect x="10" y="10" width="9" height="1" fill="black"/>
<rect x="26" y="10" width="9" height="1" fill="black"/>
<rect x="10" y="10" width="1" height="3" fill="black"/>
<rect x="34" y="10" width="1" height="3" fill="black"/>
<rect x="22" y="15" width="1" height="14" rx="0.5" fill="black"/>
<path d="M22.7913 28.1644C23.4472 29.3814 22.5054 31.2794 20.6877 32.4036C18.8699 33.5279 16.8646 33.4527 16.2087 32.2356C15.5528 31.0186 16.4946 29.1206 18.3123 27.9963C20.1301 26.8721 22.1354 26.9473 22.7913 28.1644Z" fill="black"/>
<rect x="22.7071" y="15" width="5.70382" height="1" rx="0.5" transform="rotate(45 22.7071 15)" fill="black"/>
<rect x="22.7071" y="19" width="5.70382" height="1" rx="0.5" transform="rotate(45 22.7071 19)" fill="black"/>
<path d="M37.0008 20.1206C37.0008 20.1206 35.7719 21.5941 34.2451 21.8986C34.2834 21.7666 34.3102 21.6302 34.3102 21.4859C34.3102 20.6653 33.645 20 32.8252 20C32.0042 20 31.3389 20.6653 31.3389 21.4859C31.3389 22.2158 31.866 22.8195 32.5604 22.9445C32.9247 23.0562 33.6806 23.1583 34.8453 22.7034C35.2945 22.5282 35.6703 22.2986 35.9827 22.0566L35.097 23.7422C34.594 24.1932 33.8012 24.7718 32.9062 24.95C32.9436 24.8184 32.9713 24.6816 32.9713 24.5373C32.9713 23.7167 32.306 23.0523 31.4854 23.0523C30.6653 23.0523 30 23.7167 30 24.5373C30 25.2672 30.5276 25.8709 31.221 25.9968C31.5858 26.1076 32.3417 26.2097 33.5064 25.7548C33.7721 25.6509 34.011 25.5264 34.2288 25.394L31.221 31H32.057C32.057 31 37.9636 20.1206 37.843 20.1206C37.7224 20.1206 37.0008 20.1206 37.0008 20.1206Z" fill="black"/>
<path d="M15.0008 20.1206C15.0008 20.1206 13.7719 21.5941 12.2451 21.8986C12.2834 21.7666 12.3102 21.6302 12.3102 21.4859C12.3102 20.6653 11.645 20 10.8252 20C10.0042 20 9.33892 20.6653 9.33892 21.4859C9.33892 22.2158 9.86604 22.8195 10.5604 22.9445C10.9247 23.0562 11.6806 23.1583 12.8453 22.7034C13.2945 22.5282 13.6703 22.2986 13.9827 22.0566L13.097 23.7422C12.594 24.1932 11.8012 24.7718 10.9062 24.95C10.9436 24.8184 10.9713 24.6816 10.9713 24.5373C10.9713 23.7167 10.306 23.0523 9.48544 23.0523C8.66528 23.0523 8 23.7167 8 24.5373C8 25.2672 8.52756 25.8709 9.221 25.9968C9.58576 26.1076 10.3417 26.2097 11.5064 25.7548C11.7721 25.6509 12.011 25.5264 12.2288 25.394L9.221 31H10.057C10.057 31 15.9636 20.1206 15.843 20.1206C15.7224 20.1206 15.0008 20.1206 15.0008 20.1206Z" fill="black"/>
</svg>
