<svg width="44" height="44" viewBox="0 0 44 44" fill="none" xmlns="http://www.w3.org/2000/svg">
<path d="M23 11.5C23 11.2239 23.2239 11 23.5 11C23.7761 11 24 11.2239 24 11.5V29H23V11.5Z" fill="black"/>
<path d="M23.3512 28.2016C23.5749 28.6166 23.5579 29.2141 23.2192 29.8965C22.8847 30.5707 22.2636 31.2595 21.4246 31.7784C20.5849 32.2978 19.7259 32.524 19.0312 32.498C18.3346 32.4719 17.8666 32.2024 17.6488 31.7984C17.4251 31.3834 17.4421 30.7859 17.7808 30.1035C18.1153 29.4293 18.7364 28.7405 19.5754 28.2216C20.4151 27.7022 21.2741 27.476 21.9688 27.502C22.6654 27.5281 23.1334 27.7976 23.3512 28.2016Z" stroke="black"/>
</svg>
