<svg width="44" height="44" viewBox="0 0 44 44" fill="none" xmlns="http://www.w3.org/2000/svg">
<rect x="17" y="10" width="1" height="18" rx="0.5" fill="black"/>
<path d="M17.7913 26.9644C18.4472 28.1814 17.5054 30.0794 15.6877 31.2036C13.8699 32.3279 11.8646 32.2527 11.2087 31.0356C10.5528 29.8186 11.4946 27.9206 13.3123 26.7964C15.1301 25.6721 17.1354 25.7473 17.7913 26.9644Z" fill="black"/>
<rect x="35" y="10.2" width="1" height="18" rx="0.5" fill="black"/>
<path d="M35.7913 27.1644C36.4472 28.3814 35.5054 30.2794 33.6877 31.4037C31.8699 32.5279 29.8646 32.4527 29.2087 31.2357C28.5528 30.0186 29.4946 28.1206 31.3123 26.9964C33.1301 25.8721 35.1354 25.9473 35.7913 27.1644Z" fill="black"/>
<path d="M7.00098 15L10 17.8005C10 17.8005 8.844 17.7002 8.20086 19.7C7.59841 21.5723 10 23.0995 10 23.0995C10 23.0995 6.78706 23.5998 7.77211 25.8002L8.97199 28C8.97199 28 2.45971 24.4997 8.7151 22.6999L6.22986 20.2003C6.22986 20.2003 7.7721 17.4004 7.00098 15Z" fill="black"/>
<path d="M25.001 15L28 17.8005C28 17.8005 26.844 17.7002 26.2009 19.7C25.5984 21.5723 28 23.0995 28 23.0995C28 23.0995 24.7871 23.5998 25.7721 25.8002L26.972 28C26.972 28 20.4597 24.4997 26.7151 22.6999L24.2299 20.2003C24.2299 20.2003 25.7721 17.4004 25.001 15Z" fill="black"/>
</svg>
