<svg width="44" height="44" viewBox="0 0 44 44" fill="none" xmlns="http://www.w3.org/2000/svg">
<path d="M30 11.5C30 11.2239 30.2239 11 30.5 11C30.7761 11 31 11.2239 31 11.5V29H30V11.5Z" fill="black"/>
<path d="M30.3512 28.2016C30.5749 28.6166 30.5579 29.2141 30.2192 29.8965C29.8847 30.5707 29.2636 31.2595 28.4246 31.7784C27.5849 32.2978 26.7259 32.524 26.0312 32.498C25.3346 32.4719 24.8666 32.2024 24.6488 31.7984C24.4251 31.3834 24.4421 30.7859 24.7808 30.1035C25.1153 29.4293 25.7364 28.7405 26.5754 28.2216C27.4151 27.7022 28.2741 27.476 28.9688 27.502C29.6654 27.5281 30.1334 27.7976 30.3512 28.2016Z" stroke="black"/>
<path d="M21 18H13V17.35H14.0132V16H19.9874V17.35H21V18Z" fill="black"/>
</svg>
