<svg width="44" height="44" viewBox="0 0 44 44" fill="none" xmlns="http://www.w3.org/2000/svg">
<rect x="28" y="11.2" width="1" height="18" rx="0.5" fill="black"/>
<path d="M28.7913 28.1644C29.4472 29.3814 28.5054 31.2794 26.6877 32.4036C24.8699 33.5279 22.8646 33.4527 22.2087 32.2356C21.5528 31.0186 22.4946 29.1206 24.3123 27.9963C26.1301 26.8721 28.1354 26.9473 28.7913 28.1644Z" fill="black"/>
<rect x="28.6" y="11" width="7.83989" height="1" rx="0.5" transform="rotate(45 28.6 11)" fill="black"/>
<rect x="28" y="11.2" width="1" height="18" rx="0.5" fill="black"/>
<path d="M28.7913 28.1644C29.4472 29.3814 28.5054 31.2794 26.6877 32.4036C24.8699 33.5279 22.8646 33.4527 22.2087 32.2356C21.5528 31.0186 22.4946 29.1206 24.3123 27.9963C26.1301 26.8721 28.1354 26.9473 28.7913 28.1644Z" fill="black"/>
<rect x="28.6" y="11" width="7" height="1" rx="0.5" transform="rotate(45 28.6 11)" fill="black"/>
<rect x="28.7071" y="15.2" width="7" height="1" rx="0.5" transform="rotate(45 28.7071 15.2)" fill="black"/>
<path d="M19.0008 17.1206C19.0008 17.1206 17.7719 18.5941 16.2451 18.8986C16.2834 18.7666 16.3102 18.6302 16.3102 18.4859C16.3102 17.6653 15.645 17 14.8252 17C14.0042 17 13.3389 17.6653 13.3389 18.4859C13.3389 19.2158 13.866 19.8195 14.5604 19.9445C14.9247 20.0562 15.6806 20.1583 16.8453 19.7034C17.2945 19.5282 17.6703 19.2986 17.9827 19.0566L17.097 20.7422C16.594 21.1932 15.8012 21.7718 14.9062 21.95C14.9436 21.8184 14.9713 21.6816 14.9713 21.5373C14.9713 20.7167 14.306 20.0523 13.4854 20.0523C12.6653 20.0523 12 20.7167 12 21.5373C12 22.2672 12.5276 22.8709 13.221 22.9968C13.5858 23.1076 14.3417 23.2097 15.5064 22.7548C15.7721 22.6509 16.011 22.5264 16.2288 22.394L13.221 28H14.057C14.057 28 19.9636 17.1206 19.843 17.1206C19.7224 17.1206 19.0008 17.1206 19.0008 17.1206Z" fill="black"/>
</svg>
