<svg width="44" height="44" viewBox="0 0 44 44" fill="none" xmlns="http://www.w3.org/2000/svg">
<path d="M23 16.5C23 16.2239 23.2239 16 23.5 16C23.7761 16 24 16.2239 24 16.5V29H23V16.5Z" fill="black"/>
<path d="M23.3512 28.2016C23.5749 28.6166 23.5579 29.2141 23.2192 29.8965C22.8847 30.5707 22.2636 31.2595 21.4246 31.7784C20.5849 32.2978 19.7259 32.524 19.0312 32.498C18.3346 32.4719 17.8666 32.2024 17.6488 31.7984C17.4251 31.3834 17.4421 30.7859 17.7808 30.1035C18.1153 29.4293 18.7364 28.7405 19.5754 28.2216C20.4151 27.7022 21.2741 27.476 21.9688 27.502C22.6654 27.5281 23.1334 27.7976 23.3512 28.2016Z" stroke="black"/>
<path d="M11 16.5C11 16.2239 11.2239 16 11.5 16C11.7761 16 12 16.2239 12 16.5V29H11V16.5Z" fill="black"/>
<path d="M11.3512 28.2016C11.5749 28.6166 11.5579 29.2141 11.2192 29.8965C10.8847 30.5707 10.2636 31.2595 9.42465 31.7784C8.58487 32.2978 7.72592 32.524 7.03122 32.498C6.33462 32.4719 5.86656 32.2024 5.64882 31.7984C5.42513 31.3834 5.44215 30.7859 5.78077 30.1035C6.11531 29.4293 6.73639 28.7405 7.57535 28.2216C8.41513 27.7022 9.27408 27.476 9.96878 27.502C10.6654 27.5281 11.1334 27.7976 11.3512 28.2016Z" stroke="black"/>
<path d="M35 16.5C35 16.2239 35.2239 16 35.5 16C35.7761 16 36 16.2239 36 16.5V29H35V16.5Z" fill="black"/>
<path d="M35.3512 28.2016C35.5749 28.6166 35.5579 29.2141 35.2192 29.8965C34.8847 30.5707 34.2636 31.2595 33.4246 31.7784C32.5849 32.2978 31.7259 32.524 31.0312 32.498C30.3346 32.4719 29.8666 32.2024 29.6488 31.7984C29.4251 31.3834 29.4421 30.7859 29.7808 30.1035C30.1153 29.4293 30.7364 28.7405 31.5754 28.2216C32.4151 27.7022 33.2741 27.476 33.9688 27.502C34.6654 27.5281 35.1334 27.7976 35.3512 28.2016Z" stroke="black"/>
<path d="M23.7 9.74L23.785 9.735C23.9717 9.735 24.1467 9.78167 24.31 9.875C24.4767 9.965 24.61 10.0967 24.71 10.27C24.81 10.4433 24.86 10.6467 24.86 10.88C24.86 11.1233 24.8033 11.34 24.69 11.53C24.58 11.7167 24.425 11.8617 24.225 11.965C24.025 12.0683 23.795 12.12 23.535 12.12C23.225 12.12 22.9567 12.0483 22.73 11.905C22.5067 11.7583 22.3383 11.5633 22.225 11.32L22.765 10.95C22.8517 11.13 22.9567 11.2667 23.08 11.36C23.2067 11.45 23.36 11.495 23.54 11.495C23.7267 11.495 23.8783 11.4383 23.995 11.325C24.1117 11.2117 24.17 11.0633 24.17 10.88C24.17 10.69 24.1117 10.54 23.995 10.43C23.8817 10.3167 23.7267 10.2567 23.53 10.25C23.4 10.25 23.2683 10.29 23.135 10.37L22.76 9.88L23.76 8.865H22.36V8.225H24.665V8.79L23.69 9.715L23.7 9.74Z" fill="black"/>
<rect x="11" y="10" width="9" height="1" fill="black"/>
<rect x="27" y="10" width="9" height="1" fill="black"/>
<rect x="11" y="10" width="1" height="3" fill="black"/>
<rect x="35" y="10" width="1" height="3" fill="black"/>
</svg>
