<svg width="44" height="44" viewBox="0 0 44 44" fill="none" xmlns="http://www.w3.org/2000/svg">
<path d="M15 11.5C15 11.2239 15.2239 11 15.5 11C15.7761 11 16 11.2239 16 11.5V29H15V11.5Z" fill="black"/>
<path d="M15.7913 27.9644C16.4472 29.1814 15.5054 31.0794 13.6877 32.2036C11.8699 33.3279 9.8646 33.2527 9.20868 32.0356C8.55275 30.8186 9.4946 28.9206 11.3123 27.7964C13.1301 26.6721 15.1354 26.7473 15.7913 27.9644Z" fill="black"/>
<path d="M30 11.5C30 11.2239 30.2239 11 30.5 11C30.7761 11 31 11.2239 31 11.5V29H30V11.5Z" fill="black"/>
<path d="M30.7913 27.9644C31.4472 29.1814 30.5054 31.0794 28.6877 32.2036C26.8699 33.3279 24.8646 33.2527 24.2087 32.0356C23.5528 30.8186 24.4946 28.9206 26.3123 27.7964C28.1301 26.6721 30.1354 26.7473 30.7913 27.9644Z" fill="black"/>
</svg>
