<svg width="26" height="26" viewBox="0 0 26 26" fill="none" xmlns="http://www.w3.org/2000/svg">
<g clip-path="url(#clip0_305_3237)">
<path d="M19.1818 6.60156C18.9394 6.18069 18.5397 5.87335 18.0707 5.74717C17.6016 5.62098 17.1017 5.68629 16.6808 5.92871C16.2599 6.17114 15.9526 6.57082 15.8264 7.03985C15.7002 7.50887 15.7655 8.00881 16.008 8.42969L13.5441 4.16406C13.3016 3.74359 12.9021 3.43664 12.4334 3.31075C11.9646 3.18485 11.4651 3.25031 11.0446 3.49273C10.6241 3.73516 10.3172 4.13469 10.1913 4.60343C10.0654 5.07216 10.1309 5.57172 10.3733 5.99219L9.79031 4.97656C9.54788 4.55609 9.14836 4.24914 8.67962 4.12325C8.21088 3.99735 7.71133 4.06281 7.29086 4.30523C6.87038 4.54766 6.56344 4.94719 6.43754 5.41593C6.31164 5.88466 6.3771 6.38422 6.61953 6.80469L6.95875 7.3907C6.45596 7.26597 5.92759 7.29188 5.43942 7.4652C4.95124 7.63852 4.52483 7.9516 4.21327 8.36547C3.90171 8.77933 3.71876 9.27569 3.6872 9.79276C3.65564 10.3098 3.77686 10.8248 4.03578 11.2734L4.34047 11.8016C3.90856 11.8564 3.4969 12.0171 3.14214 12.2695C2.78739 12.5219 2.50053 12.858 2.30712 13.2481C2.1137 13.6381 2.01973 14.0699 2.03356 14.5051C2.04739 14.9402 2.1686 15.3652 2.3864 15.7422L5.96851 21.9375C6.86268 23.4843 8.24098 24.694 9.89078 25.3798C11.5406 26.0656 13.3702 26.1896 15.0974 25.7325C16.8246 25.2754 18.3535 24.2626 19.4481 22.8505C20.5426 21.4384 21.1422 19.7053 21.1541 17.9187C21.8783 16.7896 22.2775 15.483 22.3082 14.1421C22.3388 12.8011 21.9996 11.4776 21.3278 10.3167L19.1818 6.60156ZM19.3037 19.5569C18.9692 20.7996 18.274 21.9153 17.3059 22.7632C16.3378 23.6111 15.1402 24.1532 13.8643 24.3209C12.5883 24.4887 11.2913 24.2747 10.1369 23.7059C8.98254 23.1371 8.02256 22.239 7.3782 21.125L3.79609 14.9297C3.7294 14.8141 3.68615 14.6864 3.66879 14.5541C3.65143 14.4217 3.66031 14.2872 3.69492 14.1583C3.72953 14.0294 3.7892 13.9086 3.87051 13.8027C3.95182 13.6968 4.05319 13.608 4.16882 13.5413C4.40236 13.4066 4.67983 13.3703 4.9402 13.4402C5.06912 13.4748 5.18996 13.5344 5.29582 13.6157C5.40169 13.6971 5.4905 13.7984 5.55718 13.9141L7.61687 17.4688C7.72462 17.6556 7.90215 17.7919 8.11043 17.8478C8.3187 17.9037 8.54066 17.8746 8.72746 17.7668C8.91426 17.6591 9.05061 17.4816 9.10651 17.2733C9.16241 17.065 9.13329 16.8431 9.02554 16.6563L5.44546 10.4609C5.37878 10.345 5.33557 10.2171 5.31832 10.0845C5.30106 9.95194 5.31009 9.81724 5.34489 9.68813C5.41517 9.42738 5.58616 9.20523 5.82023 9.07055C6.05431 8.93587 6.33229 8.89969 6.59304 8.96997C6.85379 9.04025 7.07594 9.21124 7.21062 9.44531L10.4413 15.0313C10.5491 15.2181 10.7266 15.3544 10.9349 15.4103C11.1432 15.4662 11.3651 15.4371 11.5519 15.3293C11.7387 15.2216 11.8751 15.0441 11.931 14.8358C11.9869 14.6275 11.9577 14.4056 11.85 14.2188L9.20937 9.64844C9.07469 9.41477 9.03835 9.13717 9.10835 8.8767C9.17835 8.61624 9.34894 8.39425 9.58261 8.25957C9.81628 8.12489 10.0939 8.08855 10.3543 8.15855C10.6148 8.22855 10.8368 8.39914 10.9715 8.63281L14.6785 15.0313C14.7863 15.2181 14.9638 15.3544 15.1721 15.4103C15.3803 15.4662 15.6023 15.4371 15.7891 15.3293C15.9759 15.2216 16.1123 15.0441 16.1682 14.8358C16.2241 14.6275 16.1949 14.4056 16.0872 14.2188L14.8075 12.0098C14.7106 11.7756 14.7047 11.5136 14.7911 11.2753C14.8774 11.037 15.0498 10.8396 15.2743 10.7219C15.4987 10.6042 15.7591 10.5746 16.0042 10.6391C16.2494 10.7036 16.4615 10.8574 16.5991 11.0703L18.6527 14.625C19.0823 15.3632 19.3611 16.1794 19.4729 17.0262C19.5846 17.8729 19.5271 18.7335 19.3037 19.5579V19.5569ZM16.272 2.4375V0.8125C16.272 0.597012 16.3576 0.390349 16.51 0.237976C16.6624 0.0856025 16.869 0 17.0845 0C17.3 0 17.5067 0.0856025 17.6591 0.237976C17.8114 0.390349 17.897 0.597012 17.897 0.8125V2.4375C17.897 2.65299 17.8114 2.85965 17.6591 3.01202C17.5067 3.1644 17.3 3.25 17.0845 3.25C16.869 3.25 16.6624 3.1644 16.51 3.01202C16.3576 2.85965 16.272 2.65299 16.272 2.4375ZM19.6459 3.04688L20.4584 1.71641C20.514 1.62518 20.587 1.54579 20.6732 1.48276C20.7594 1.41974 20.8572 1.37431 20.961 1.34908C21.0648 1.32386 21.1725 1.31932 21.2781 1.33573C21.3836 1.35214 21.4849 1.38918 21.5761 1.44473C21.6674 1.50028 21.7468 1.57325 21.8098 1.65948C21.8728 1.74572 21.9182 1.84352 21.9435 1.94731C21.9687 2.0511 21.9732 2.15884 21.9568 2.26438C21.9404 2.36992 21.9034 2.47119 21.8478 2.56242L21.0353 3.89391C20.9626 4.01291 20.8605 4.1112 20.7389 4.17932C20.6172 4.24745 20.4801 4.28311 20.3406 4.28289C20.1962 4.28312 20.0543 4.24485 19.9296 4.17201C19.8048 4.09916 19.7018 3.99439 19.631 3.86848C19.5603 3.74257 19.5243 3.60007 19.527 3.45566C19.5296 3.31124 19.5706 3.17014 19.6459 3.04688ZM24.2162 6.46547L22.6877 6.95805C22.607 6.9839 22.5227 6.99725 22.4379 6.99766C22.2439 6.99823 22.0561 6.92938 21.9084 6.80355C21.7608 6.67771 21.663 6.5032 21.6329 6.31156C21.6027 6.11993 21.6421 5.92382 21.7439 5.7587C21.8457 5.59357 22.0033 5.47033 22.188 5.41125L23.7176 4.91867C23.9227 4.85254 24.1457 4.87061 24.3375 4.96889C24.5293 5.06717 24.6742 5.23762 24.7403 5.44274C24.8064 5.64785 24.7884 5.87084 24.6901 6.06264C24.5918 6.25444 24.4214 6.39934 24.2162 6.46547Z" fill="black"/>
</g>
<defs>
<clipPath id="clip0_305_3237">
<rect width="26" height="26" fill="white"/>
</clipPath>
</defs>
</svg>
