<svg width="44" height="44" viewBox="0 0 44 44" fill="none" xmlns="http://www.w3.org/2000/svg">
<rect x="19" y="11" width="1" height="19" fill="black"/>
<path d="M19.7913 28.9644C20.4472 30.1814 19.5054 32.0794 17.6877 33.2036C15.8699 34.3279 13.8646 34.2527 13.2087 33.0356C12.5528 31.8186 13.4946 29.9206 15.3123 28.7964C17.1301 27.6721 19.1354 27.7473 19.7913 28.9644Z" fill="black"/>
<rect x="37" y="11" width="1" height="19" fill="black"/>
<path d="M37.7913 28.9644C38.4472 30.1814 37.5054 32.0794 35.6877 33.2036C33.8699 34.3279 31.8646 34.2527 31.2087 33.0356C30.5528 31.8186 31.4946 29.9206 33.3123 28.7964C35.1301 27.6721 37.1354 27.7473 37.7913 28.9644Z" fill="black"/>
<rect x="10" y="11" width="1" height="19" fill="black"/>
<path d="M10.7913 28.9644C11.4472 30.1814 10.5054 32.0794 8.68765 33.2036C6.86991 34.3279 4.8646 34.2527 4.20868 33.0356C3.55275 31.8186 4.4946 29.9206 6.31235 28.7964C8.13009 27.6721 10.1354 27.7473 10.7913 28.9644Z" fill="black"/>
<rect x="28" y="11" width="1" height="19" fill="black"/>
<path d="M28.7913 28.9644C29.4472 30.1814 28.5054 32.0794 26.6877 33.2036C24.8699 34.3279 22.8646 34.2527 22.2087 33.0356C21.5528 31.8186 22.4946 29.9206 24.3123 28.7964C26.1301 27.6721 28.1354 27.7473 28.7913 28.9644Z" fill="black"/>
<rect x="10" y="11" width="28" height="2" fill="black"/>
<rect x="10" y="15" width="28" height="2" fill="black"/>
<rect x="10" y="19" width="28" height="2" fill="black"/>
</svg>
