<svg width="44" height="44" viewBox="0 0 44 44" fill="none" xmlns="http://www.w3.org/2000/svg">
<rect x="23" y="16" width="1" height="14" fill="black"/>
<path d="M23.7913 28.9644C24.4472 30.1814 23.5054 32.0794 21.6877 33.2036C19.8699 34.3279 17.8646 34.2527 17.2087 33.0356C16.5528 31.8186 17.4946 29.9206 19.3123 28.7964C21.1301 27.6721 23.1354 27.7473 23.7913 28.9644Z" fill="black"/>
<rect x="35" y="16" width="1" height="14" fill="black"/>
<path d="M35.7913 28.9644C36.4472 30.1814 35.5054 32.0794 33.6877 33.2036C31.8699 34.3279 29.8646 34.2527 29.2087 33.0356C28.5528 31.8186 29.4946 29.9206 31.3123 28.7964C33.1301 27.6721 35.1354 27.7473 35.7913 28.9644Z" fill="black"/>
<rect x="23" y="15" width="13" height="2" fill="black"/>
<rect x="23" y="19" width="13" height="2" fill="black"/>
<path d="M23.7 9.74L23.785 9.735C23.9717 9.735 24.1467 9.78167 24.31 9.875C24.4767 9.965 24.61 10.0967 24.71 10.27C24.81 10.4433 24.86 10.6467 24.86 10.88C24.86 11.1233 24.8033 11.34 24.69 11.53C24.58 11.7167 24.425 11.8617 24.225 11.965C24.025 12.0683 23.795 12.12 23.535 12.12C23.225 12.12 22.9567 12.0483 22.73 11.905C22.5067 11.7583 22.3383 11.5633 22.225 11.32L22.765 10.95C22.8517 11.13 22.9567 11.2667 23.08 11.36C23.2067 11.45 23.36 11.495 23.54 11.495C23.7267 11.495 23.8783 11.4383 23.995 11.325C24.1117 11.2117 24.17 11.0633 24.17 10.88C24.17 10.69 24.1117 10.54 23.995 10.43C23.8817 10.3167 23.7267 10.2567 23.53 10.25C23.4 10.25 23.2683 10.29 23.135 10.37L22.76 9.88L23.76 8.865H22.36V8.225H24.665V8.79L23.69 9.715L23.7 9.74Z" fill="black"/>
<rect x="11" y="10" width="9" height="1" fill="black"/>
<rect x="27" y="10" width="9" height="1" fill="black"/>
<rect x="11" y="10" width="1" height="3" fill="black"/>
<rect x="35" y="10" width="1" height="3" fill="black"/>
<path d="M16.0008 20.1206C16.0008 20.1206 14.7719 21.5941 13.2451 21.8986C13.2834 21.7666 13.3102 21.6302 13.3102 21.4859C13.3102 20.6653 12.645 20 11.8252 20C11.0042 20 10.3389 20.6653 10.3389 21.4859C10.3389 22.2158 10.866 22.8195 11.5604 22.9445C11.9247 23.0562 12.6806 23.1583 13.8453 22.7034C14.2945 22.5282 14.6703 22.2986 14.9827 22.0566L14.097 23.7422C13.594 24.1932 12.8012 24.7718 11.9062 24.95C11.9436 24.8184 11.9713 24.6816 11.9713 24.5373C11.9713 23.7167 11.306 23.0523 10.4854 23.0523C9.66528 23.0523 9 23.7167 9 24.5373C9 25.2672 9.52756 25.8709 10.221 25.9968C10.5858 26.1076 11.3417 26.2097 12.5064 25.7548C12.7721 25.6509 13.011 25.5264 13.2288 25.394L10.221 31H11.057C11.057 31 16.9636 20.1206 16.843 20.1206C16.7224 20.1206 16.0008 20.1206 16.0008 20.1206Z" fill="black"/>
</svg>
