<svg width="44" height="44" viewBox="0 0 44 44" fill="none" xmlns="http://www.w3.org/2000/svg">
<path d="M27 12.5C27 12.2239 27.2239 12 27.5 12C27.7761 12 28 12.2239 28 12.5V30H27V12.5Z" fill="black"/>
<path d="M27.7913 28.9644C28.4472 30.1814 27.5054 32.0794 25.6877 33.2036C23.8699 34.3279 21.8646 34.2527 21.2087 33.0356C20.5528 31.8186 21.4946 29.9206 23.3123 28.7964C25.1301 27.6721 27.1354 27.7473 27.7913 28.9644Z" fill="black"/>
<circle cx="31.5" cy="29.5" r="1.5" fill="black"/>
<rect x="14" y="12.2" width="1" height="18" rx="0.5" fill="black"/>
<path d="M14.7913 29.1644C15.4472 30.3814 14.5054 32.2794 12.6877 33.4037C10.8699 34.5279 8.8646 34.4527 8.20868 33.2357C7.55275 32.0186 8.4946 30.1206 10.3123 28.9964C12.1301 27.8721 14.1354 27.9473 14.7913 29.1644Z" fill="black"/>
<rect x="14.6" y="12" width="7.83989" height="1" rx="0.5" transform="rotate(45 14.6 12)" fill="black"/>
</svg>
