<svg width="44" height="44" viewBox="0 0 44 44" fill="none" xmlns="http://www.w3.org/2000/svg">
<path d="M23 12.5C23 12.2239 23.2239 12 23.5 12C23.7761 12 24 12.2239 24 12.5V30H23V12.5Z" fill="black"/>
<path d="M23.3512 29.2016C23.5749 29.6166 23.5579 30.2141 23.2192 30.8965C22.8847 31.5707 22.2636 32.2595 21.4246 32.7784C20.5849 33.2978 19.7259 33.524 19.0312 33.498C18.3346 33.4719 17.8666 33.2024 17.6488 32.7984C17.4251 32.3834 17.4421 31.7859 17.7808 31.1035C18.1153 30.4293 18.7364 29.7405 19.5754 29.2216C20.4151 28.7022 21.2741 28.476 21.9688 28.502C22.6654 28.5281 23.1334 28.7976 23.3512 29.2016Z" stroke="black"/>
<rect x="11" y="12.2" width="1" height="18" rx="0.5" fill="black"/>
<path d="M11.7913 29.1644C12.4472 30.3814 11.5054 32.2794 9.68765 33.4037C7.86991 34.5279 5.8646 34.4527 5.20868 33.2357C4.55275 32.0186 5.4946 30.1206 7.31235 28.9964C9.13009 27.8721 11.1354 27.9473 11.7913 29.1644Z" fill="black"/>
<rect x="34" y="12.2" width="1" height="18" rx="0.5" fill="black"/>
<path d="M34.7913 29.1644C35.4472 30.3814 34.5054 32.2794 32.6877 33.4037C30.8699 34.5279 28.8646 34.4527 28.2087 33.2357C27.5528 32.0186 28.4946 30.1206 30.3123 28.9964C32.1301 27.8721 34.1354 27.9473 34.7913 29.1644Z" fill="black"/>
</svg>
