<svg width="44" height="44" viewBox="0 0 44 44" fill="none" xmlns="http://www.w3.org/2000/svg">
<rect x="23" y="11" width="1" height="19" fill="black"/>
<path d="M23.7913 28.9644C24.4472 30.1814 23.5054 32.0794 21.6877 33.2036C19.8699 34.3279 17.8646 34.2527 17.2087 33.0356C16.5528 31.8186 17.4946 29.9206 19.3123 28.7964C21.1301 27.6721 23.1354 27.7473 23.7913 28.9644Z" fill="black"/>
<rect x="35" y="11" width="1" height="19" fill="black"/>
<path d="M35.7913 28.9644C36.4472 30.1814 35.5054 32.0794 33.6877 33.2036C31.8699 34.3279 29.8646 34.2527 29.2087 33.0356C28.5528 31.8186 29.4946 29.9206 31.3123 28.7964C33.1301 27.6721 35.1354 27.7473 35.7913 28.9644Z" fill="black"/>
<path d="M11 11.5C11 11.2239 11.2239 11 11.5 11C11.7761 11 12 11.2239 12 11.5V30H11V11.5Z" fill="black"/>
<path d="M11.3512 29.2016C11.5749 29.6166 11.5579 30.2141 11.2192 30.8965C10.8847 31.5707 10.2636 32.2595 9.42465 32.7784C8.58487 33.2978 7.72592 33.524 7.03122 33.498C6.33462 33.4719 5.86656 33.2024 5.64882 32.7984C5.42513 32.3834 5.44215 31.7859 5.78077 31.1035C6.11531 30.4293 6.73639 29.7405 7.57535 29.2216C8.41513 28.7022 9.27408 28.476 9.96878 28.502C10.6654 28.5281 11.1334 28.7976 11.3512 29.2016Z" stroke="black"/>
</svg>
