<svg width="44" height="44" viewBox="0 0 44 44" fill="none" xmlns="http://www.w3.org/2000/svg">
<rect x="16" y="10.2" width="1" height="18" rx="0.5" fill="black"/>
<path d="M16.7913 27.1644C17.4472 28.3814 16.5054 30.2794 14.6877 31.4037C12.8699 32.5279 10.8646 32.4527 10.2087 31.2357C9.55275 30.0186 10.4946 28.1206 12.3123 26.9964C14.1301 25.8721 16.1354 25.9473 16.7913 27.1644Z" fill="black"/>
<rect x="16.6" y="10" width="7.83989" height="1" rx="0.5" transform="rotate(45 16.6 10)" fill="black"/>
<rect x="35" y="10.2" width="1" height="18" rx="0.5" fill="black"/>
<path d="M35.7913 27.1644C36.4472 28.3814 35.5054 30.2794 33.6877 31.4037C31.8699 32.5279 29.8646 32.4527 29.2087 31.2357C28.5528 30.0186 29.4946 28.1206 31.3123 26.9964C33.1301 25.8721 35.1354 25.9473 35.7913 27.1644Z" fill="black"/>
<rect x="35.6" y="10" width="7.83989" height="1" rx="0.5" transform="rotate(45 35.6 10)" fill="black"/>
<path d="M11.2887 16.8178C11.1034 16.8178 11.0261 16.9003 10.8991 17.0352C10.4735 17.4871 9.39562 18.5072 8.12758 18.7646C8.16925 18.62 8.19766 18.4707 8.19766 18.3127C8.19766 17.4142 7.4817 16.6858 6.59954 16.6858C5.71596 16.6858 5 17.4142 5 18.3127C5 19.1119 5.56727 19.7729 6.31354 19.9097C6.7075 20.0321 7.51958 20.1438 8.7744 19.6457C9.25739 19.454 9.6613 19.2025 9.9975 18.9375L6.49169 25.7247C6.35966 25.9803 6.53588 26.2869 6.82321 26.3015C6.97605 26.3092 7.11906 26.2293 7.19129 26.0944C7.82921 24.9028 10.8747 19.2049 11.7588 17.3763C11.9067 17.0704 11.6284 16.8178 11.2887 16.8178Z" fill="black"/>
<path d="M30.2887 16.8178C30.1034 16.8178 30.0261 16.9003 29.8991 17.0352C29.4735 17.4871 28.3956 18.5072 27.1276 18.7646C27.1692 18.62 27.1977 18.4707 27.1977 18.3127C27.1977 17.4142 26.4817 16.6858 25.5995 16.6858C24.716 16.6858 24 17.4142 24 18.3127C24 19.1119 24.5673 19.7729 25.3135 19.9097C25.7075 20.0321 26.5196 20.1438 27.7744 19.6457C28.2574 19.454 28.6613 19.2025 28.9975 18.9375L25.4917 25.7247C25.3597 25.9803 25.5359 26.2869 25.8232 26.3015C25.976 26.3092 26.1191 26.2293 26.1913 26.0944C26.8292 24.9028 29.8747 19.2049 30.7588 17.3763C30.9067 17.0704 30.6284 16.8178 30.2887 16.8178Z" fill="black"/>
</svg>
