<svg width="44" height="44" viewBox="0 0 44 44" fill="none" xmlns="http://www.w3.org/2000/svg">
<path d="M23 16.5C23 16.2239 23.2239 16 23.5 16C23.7761 16 24 16.2239 24 16.5V29H23V16.5Z" fill="black"/>
<path d="M23.7913 27.9644C24.4472 29.1814 23.5054 31.0794 21.6877 32.2036C19.8699 33.3279 17.8646 33.2527 17.2087 32.0356C16.5528 30.8186 17.4946 28.9206 19.3123 27.7964C21.1301 26.6721 23.1354 26.7473 23.7913 27.9644Z" fill="black"/>
<path d="M11 16.5C11 16.2239 11.2239 16 11.5 16C11.7761 16 12 16.2239 12 16.5V29H11V16.5Z" fill="black"/>
<rect x="11" y="16" width="25" height="2" fill="black"/>
<rect x="11" y="20" width="25" height="2" fill="black"/>
<path d="M11.7913 27.9644C12.4472 29.1814 11.5054 31.0794 9.68765 32.2036C7.86991 33.3279 5.8646 33.2527 5.20868 32.0356C4.55275 30.8186 5.4946 28.9206 7.31235 27.7964C9.13009 26.6721 11.1354 26.7473 11.7913 27.9644Z" fill="black"/>
<path d="M35 16.5C35 16.2239 35.2239 16 35.5 16C35.7761 16 36 16.2239 36 16.5V29H35V16.5Z" fill="black"/>
<path d="M35.7913 27.9644C36.4472 29.1814 35.5054 31.0794 33.6877 32.2036C31.8699 33.3279 29.8646 33.2527 29.2087 32.0356C28.5528 30.8186 29.4946 28.9206 31.3123 27.7964C33.1301 26.6721 35.1354 26.7473 35.7913 27.9644Z" fill="black"/>
<path d="M23.7 9.74L23.785 9.735C23.9717 9.735 24.1467 9.78167 24.31 9.875C24.4767 9.965 24.61 10.0967 24.71 10.27C24.81 10.4433 24.86 10.6467 24.86 10.88C24.86 11.1233 24.8033 11.34 24.69 11.53C24.58 11.7167 24.425 11.8617 24.225 11.965C24.025 12.0683 23.795 12.12 23.535 12.12C23.225 12.12 22.9567 12.0483 22.73 11.905C22.5067 11.7583 22.3383 11.5633 22.225 11.32L22.765 10.95C22.8517 11.13 22.9567 11.2667 23.08 11.36C23.2067 11.45 23.36 11.495 23.54 11.495C23.7267 11.495 23.8783 11.4383 23.995 11.325C24.1117 11.2117 24.17 11.0633 24.17 10.88C24.17 10.69 24.1117 10.54 23.995 10.43C23.8817 10.3167 23.7267 10.2567 23.53 10.25C23.4 10.25 23.2683 10.29 23.135 10.37L22.76 9.88L23.76 8.865H22.36V8.225H24.665V8.79L23.69 9.715L23.7 9.74Z" fill="black"/>
<rect x="11" y="10" width="9" height="1" fill="black"/>
<rect x="27" y="10" width="9" height="1" fill="black"/>
<rect x="11" y="10" width="1" height="3" fill="black"/>
<rect x="35" y="10" width="1" height="3" fill="black"/>
</svg>
