<svg width="44" height="44" viewBox="0 0 44 44" fill="none" xmlns="http://www.w3.org/2000/svg">
<rect x="11" y="16" width="1" height="14" fill="black"/>
<path d="M11.7913 28.9644C12.4472 30.1814 11.5054 32.0794 9.68765 33.2036C7.86991 34.3279 5.8646 34.2527 5.20868 33.0356C4.55275 31.8186 5.4946 29.9206 7.31235 28.7964C9.13009 27.6721 11.1354 27.7473 11.7913 28.9644Z" fill="black"/>
<rect x="23" y="16" width="1" height="14" fill="black"/>
<path d="M23.7913 28.9644C24.4472 30.1814 23.5054 32.0794 21.6877 33.2036C19.8699 34.3279 17.8646 34.2527 17.2087 33.0356C16.5528 31.8186 17.4946 29.9206 19.3123 28.7964C21.1301 27.6721 23.1354 27.7473 23.7913 28.9644Z" fill="black"/>
<rect x="11" y="15" width="13" height="2" fill="black"/>
<rect x="11" y="19" width="13" height="2" fill="black"/>
<path d="M23.7 9.74L23.785 9.735C23.9717 9.735 24.1467 9.78167 24.31 9.875C24.4767 9.965 24.61 10.0967 24.71 10.27C24.81 10.4433 24.86 10.6467 24.86 10.88C24.86 11.1233 24.8033 11.34 24.69 11.53C24.58 11.7167 24.425 11.8617 24.225 11.965C24.025 12.0683 23.795 12.12 23.535 12.12C23.225 12.12 22.9567 12.0483 22.73 11.905C22.5067 11.7583 22.3383 11.5633 22.225 11.32L22.765 10.95C22.8517 11.13 22.9567 11.2667 23.08 11.36C23.2067 11.45 23.36 11.495 23.54 11.495C23.7267 11.495 23.8783 11.4383 23.995 11.325C24.1117 11.2117 24.17 11.0633 24.17 10.88C24.17 10.69 24.1117 10.54 23.995 10.43C23.8817 10.3167 23.7267 10.2567 23.53 10.25C23.4 10.25 23.2683 10.29 23.135 10.37L22.76 9.88L23.76 8.865H22.36V8.225H24.665V8.79L23.69 9.715L23.7 9.74Z" fill="black"/>
<rect x="11" y="10" width="9" height="1" fill="black"/>
<rect x="27" y="10" width="9" height="1" fill="black"/>
<rect x="11" y="10" width="1" height="3" fill="black"/>
<rect x="35" y="10" width="1" height="3" fill="black"/>
<path d="M37.0008 20.1206C37.0008 20.1206 35.7719 21.5941 34.2451 21.8986C34.2834 21.7666 34.3102 21.6302 34.3102 21.4859C34.3102 20.6653 33.645 20 32.8252 20C32.0042 20 31.3389 20.6653 31.3389 21.4859C31.3389 22.2158 31.866 22.8195 32.5604 22.9445C32.9247 23.0562 33.6806 23.1583 34.8453 22.7034C35.2945 22.5282 35.6703 22.2986 35.9827 22.0566L35.097 23.7422C34.594 24.1932 33.8012 24.7718 32.9062 24.95C32.9436 24.8184 32.9713 24.6816 32.9713 24.5373C32.9713 23.7167 32.306 23.0523 31.4854 23.0523C30.6653 23.0523 30 23.7167 30 24.5373C30 25.2672 30.5276 25.8709 31.221 25.9968C31.5858 26.1076 32.3417 26.2097 33.5064 25.7548C33.7721 25.6509 34.011 25.5264 34.2288 25.394L31.221 31H32.057C32.057 31 37.9636 20.1206 37.843 20.1206C37.7224 20.1206 37.0008 20.1206 37.0008 20.1206Z" fill="black"/>
</svg>
